<?xml version="1.0" encoding="UTF-8"?>
<!DOCTYPE svg PUBLIC "-//W3C//DTD SVG 1.1//EN" "http://www.w3.org/Graphics/SVG/1.1/DTD/svg11.dtd">
<svg xmlns="http://www.w3.org/2000/svg" version="1.1" width="685px" height="685px" style="shape-rendering:geometricPrecision; text-rendering:geometricPrecision; image-rendering:optimizeQuality; fill-rule:evenodd; clip-rule:evenodd" xmlns:xlink="http://www.w3.org/1999/xlink">
<g><path style="opacity:1" fill="#fefbfb" d="M -0.5,-0.5 C 227.833,-0.5 456.167,-0.5 684.5,-0.5C 684.5,227.833 684.5,456.167 684.5,684.5C 456.167,684.5 227.833,684.5 -0.5,684.5C -0.5,456.167 -0.5,227.833 -0.5,-0.5 Z"/></g>
<g><path style="opacity:1" fill="#271c40" d="M 607.5,230.5 C 606.683,228.031 606.183,225.365 606,222.5C 605.798,224.256 605.298,225.922 604.5,227.5C 603.049,225.441 601.049,224.441 598.5,224.5C 598.136,235.087 597.136,235.087 595.5,224.5C 594.571,225.689 594.238,227.022 594.5,228.5C 593.5,228.5 592.5,228.5 591.5,228.5C 590.973,231.231 590.14,233.898 589,236.5C 588.667,235.167 588.333,233.833 588,232.5C 588.102,236.956 587.268,240.956 585.5,244.5C 585.824,237.646 585.491,230.979 584.5,224.5C 583.683,221.521 582.849,218.521 582,215.5C 581.617,214.944 581.117,214.611 580.5,214.5C 579.502,210.495 577.502,207.161 574.5,204.5C 572.906,201.236 570.573,198.569 567.5,196.5C 563.067,192.416 558.067,189.082 552.5,186.5C 551.942,185.21 550.942,184.377 549.5,184C 546.5,183.333 543.5,183.333 540.5,184C 539.645,186.436 538.979,188.936 538.5,191.5C 538.167,191.5 537.833,191.5 537.5,191.5C 532.899,191.945 528.565,191.278 524.5,189.5C 514.304,171.472 499.971,157.639 481.5,148C 468.594,143.192 455.761,143.359 443,148.5C 418.26,129.06 390.094,117.727 358.5,114.5C 357.817,112.824 356.483,112.157 354.5,112.5C 346.01,111.67 337.343,111.17 328.5,111C 334.404,110.71 340.404,110.043 346.5,109C 343.854,108.503 341.187,108.336 338.5,108.5C 338.5,107.167 338.5,105.833 338.5,104.5C 335.5,104.5 332.5,104.5 329.5,104.5C 329.227,106.451 329.893,107.951 331.5,109C 329.167,109.667 326.833,109.667 324.5,109C 326.389,105.164 327.055,100.997 326.5,96.5C 320.449,97.1793 314.449,97.1793 308.5,96.5C 306.78,97.934 304.78,98.7674 302.5,99C 291.944,99.6093 281.611,101.109 271.5,103.5C 270.593,106.421 270.26,109.421 270.5,112.5C 267.833,112.5 265.167,112.5 262.5,112.5C 262.5,110.167 262.5,107.833 262.5,105.5C 259.833,105.5 257.167,105.5 254.5,105.5C 305.352,86.3497 356.686,85.5164 408.5,103C 422.501,107.833 435.501,114.5 447.5,123C 472.428,118.475 494.428,124.475 513.5,141C 520.052,147.049 526.052,153.549 531.5,160.5C 571.172,163.015 596.339,183.349 607,221.5C 607.498,224.482 607.665,227.482 607.5,230.5 Z"/></g>
<g><path style="opacity:1" fill="#413a57" d="M 322.5,113.5 C 332.987,112.506 343.654,112.172 354.5,112.5C 356.483,112.157 357.817,112.824 358.5,114.5C 346.52,113.662 334.52,113.328 322.5,113.5 Z"/></g>
<g><path style="opacity:1" fill="#261b42" d="M 354.5,112.5 C 343.654,112.172 332.987,112.506 322.5,113.5C 319.391,113.264 316.391,113.597 313.5,114.5C 308.25,114.302 303.25,114.969 298.5,116.5C 271.572,120.524 247.572,131.024 226.5,148C 219.719,146.062 212.719,144.895 205.5,144.5C 192.838,144.999 181.504,149.166 171.5,157C 161.022,166.495 152.356,177.329 145.5,189.5C 144.5,190.167 143.5,190.833 142.5,191.5C 139.372,192.618 136.372,192.451 133.5,191C 134.517,189.951 134.684,188.784 134,187.5C 132.644,188.38 131.144,188.714 129.5,188.5C 129.737,187.209 129.404,186.209 128.5,185.5C 127.601,184.528 126.434,183.862 125,183.5C 120.114,185.073 115.281,186.739 110.5,188.5C 108.559,188.131 106.725,187.464 105,186.5C 104.667,187.833 104.333,189.167 104,190.5C 103.667,190.167 103.333,189.833 103,189.5C 102.028,191.305 100.861,192.972 99.5,194.5C 97.4954,191.972 95.8287,192.305 94.5,195.5C 92.604,196.466 90.604,196.799 88.5,196.5C 88.2864,192.743 89.2864,192.076 91.5,194.5C 93.305,192.097 95.6384,190.43 98.5,189.5C 93.972,189.028 89.6387,188.028 85.5,186.5C 83.484,189.163 82.1507,188.83 81.5,185.5C 96.3315,168.925 114.998,160.758 137.5,161C 150.344,142.151 167.678,129.484 189.5,123C 199.326,120.758 208.992,121.258 218.5,124.5C 229.679,116.577 241.679,110.244 254.5,105.5C 257.167,105.5 259.833,105.5 262.5,105.5C 262.5,107.833 262.5,110.167 262.5,112.5C 265.167,112.5 267.833,112.5 270.5,112.5C 270.26,109.421 270.593,106.421 271.5,103.5C 281.611,101.109 291.944,99.6093 302.5,99C 304.78,98.7674 306.78,97.934 308.5,96.5C 314.449,97.1793 320.449,97.1793 326.5,96.5C 327.055,100.997 326.389,105.164 324.5,109C 326.833,109.667 329.167,109.667 331.5,109C 329.893,107.951 329.227,106.451 329.5,104.5C 332.5,104.5 335.5,104.5 338.5,104.5C 338.5,105.833 338.5,107.167 338.5,108.5C 341.187,108.336 343.854,108.503 346.5,109C 340.404,110.043 334.404,110.71 328.5,111C 337.343,111.17 346.01,111.67 354.5,112.5 Z"/></g>
<g><path style="opacity:1" fill="#fcf9f8" d="M 322.5,113.5 C 334.52,113.328 346.52,113.662 358.5,114.5C 390.094,117.727 418.26,129.06 443,148.5C 455.761,143.359 468.594,143.192 481.5,148C 499.971,157.639 514.304,171.472 524.5,189.5C 524.5,189.833 524.5,190.167 524.5,190.5C 524.348,194.487 522.348,195.987 518.5,195C 509.785,180.618 498.118,169.284 483.5,161C 481.866,160.506 480.199,160.34 478.5,160.5C 470.698,156.502 462.365,155.502 453.5,157.5C 452.089,159.017 452.256,160.351 454,161.5C 455.916,167.389 454.082,169.389 448.5,167.5C 433.48,152.488 415.814,141.822 395.5,135.5C 391.333,133.376 387,131.709 382.5,130.5C 382.047,129.542 381.381,128.708 380.5,128C 370.859,126.602 361.192,125.269 351.5,124C 335.41,122.938 319.41,123.605 303.5,126C 302.944,126.383 302.611,126.883 302.5,127.5C 297.678,128.217 293.012,129.551 288.5,131.5C 283.027,131.933 277.694,133.1 272.5,135C 269.719,135.522 267.385,136.689 265.5,138.5C 247.822,144.516 232.488,154.349 219.5,168C 217.866,168.494 216.199,168.66 214.5,168.5C 212.396,166.417 212.062,164.083 213.5,161.5C 216.128,160.745 216.795,159.245 215.5,157C 205.068,155.406 195.068,156.739 185.5,161C 184.058,161.377 183.058,162.21 182.5,163.5C 180.326,163.75 178.659,164.75 177.5,166.5C 171.217,169.783 166.217,174.45 162.5,180.5C 160.537,181.96 158.704,183.627 157,185.5C 155.559,188.88 153.726,192.047 151.5,195C 149.866,195.494 148.199,195.66 146.5,195.5C 145.85,193.565 145.517,191.565 145.5,189.5C 152.356,177.329 161.022,166.495 171.5,157C 181.504,149.166 192.838,144.999 205.5,144.5C 212.719,144.895 219.719,146.062 226.5,148C 247.572,131.024 271.572,120.524 298.5,116.5C 303.731,116.556 308.731,115.889 313.5,114.5C 316.391,113.597 319.391,113.264 322.5,113.5 Z"/></g>
<g><path style="opacity:1" fill="#cdc6da" d="M 313.5,114.5 C 308.731,115.889 303.731,116.556 298.5,116.5C 303.25,114.969 308.25,114.302 313.5,114.5 Z"/></g>
<g><path style="opacity:1" fill="#fef6e7" d="M 382.5,130.5 C 379.833,130.167 377.167,129.833 374.5,129.5C 365.483,127.13 356.149,125.797 346.5,125.5C 342.18,124.834 337.68,124.501 333,124.5C 326.586,124.289 320.419,124.955 314.5,126.5C 310.434,126.307 306.434,126.64 302.5,127.5C 302.611,126.883 302.944,126.383 303.5,126C 319.41,123.605 335.41,122.938 351.5,124C 361.192,125.269 370.859,126.602 380.5,128C 381.381,128.708 382.047,129.542 382.5,130.5 Z"/></g>
<g><path style="opacity:1" fill="#f9cfa5" d="M 346.5,125.5 C 335.815,125.39 325.148,125.723 314.5,126.5C 320.419,124.955 326.586,124.289 333,124.5C 337.68,124.501 342.18,124.834 346.5,125.5 Z"/></g>
<g><path style="opacity:1" fill="#e59a57" d="M 346.5,125.5 C 356.149,125.797 365.483,127.13 374.5,129.5C 351.873,127.681 329.206,127.181 306.5,128C 300.738,130.441 294.738,131.608 288.5,131.5C 293.012,129.551 297.678,128.217 302.5,127.5C 306.434,126.64 310.434,126.307 314.5,126.5C 325.148,125.723 335.815,125.39 346.5,125.5 Z"/></g>
<g><path style="opacity:1" fill="#f09341" d="M 374.5,129.5 C 381.015,132.746 388.015,134.746 395.5,135.5C 415.814,141.822 433.48,152.488 448.5,167.5C 450.927,170.014 453.594,170.014 456.5,167.5C 457.214,164.973 457.88,162.473 458.5,160C 465.195,159.335 471.862,159.502 478.5,160.5C 480.199,160.34 481.866,160.506 483.5,161C 498.118,169.284 509.785,180.618 518.5,195C 522.348,195.987 524.348,194.487 524.5,190.5C 528.019,193.279 532.019,194.112 536.5,193C 537.056,192.617 537.389,192.117 537.5,191.5C 537.833,191.5 538.167,191.5 538.5,191.5C 540.834,189.824 541.834,187.491 541.5,184.5C 545.319,184.414 548.985,185.081 552.5,186.5C 558.067,189.082 563.067,192.416 567.5,196.5C 569.094,199.764 571.427,202.431 574.5,204.5C 577.502,207.161 579.502,210.495 580.5,214.5C 580.5,217.167 580.5,219.833 580.5,222.5C 579.939,242.696 570.606,257.03 552.5,265.5C 551.07,265.579 549.736,265.246 548.5,264.5C 540.552,265.53 532.719,266.197 525,266.5C 524.667,265.5 524.333,264.5 524,263.5C 522.274,264.576 520.441,264.743 518.5,264C 516.301,262.303 513.968,260.803 511.5,259.5C 510.583,260.127 509.583,260.461 508.5,260.5C 505.203,257.704 502.036,254.704 499,251.5C 494.862,244.195 491.029,236.862 487.5,229.5C 486.833,223.833 486.167,218.167 485.5,212.5C 485.813,200.116 485.48,187.783 484.5,175.5C 486.756,174.579 487.756,172.912 487.5,170.5C 485.533,170.261 483.699,170.594 482,171.5C 476.394,167.844 470.561,167.51 464.5,170.5C 463.571,171.689 463.238,173.022 463.5,174.5C 463.5,175.167 463.5,175.833 463.5,176.5C 462.662,176.842 462.328,177.508 462.5,178.5C 461.539,180.265 461.205,182.265 461.5,184.5C 443.816,225.881 448.816,264.214 476.5,299.5C 485.471,311.965 496.804,321.798 510.5,329C 524.429,336.734 539.429,340.901 555.5,341.5C 556.939,346.456 558.272,351.456 559.5,356.5C 559.5,360.167 559.5,363.833 559.5,367.5C 556.837,369.323 553.837,370.323 550.5,370.5C 550.5,371.5 550.5,372.5 550.5,373.5C 546.546,375.827 542.546,378.161 538.5,380.5C 536.421,380.971 534.421,381.637 532.5,382.5C 532.392,380.217 531.559,378.217 530,376.5C 525.795,371.113 520.628,367.113 514.5,364.5C 512.9,363.356 511.233,362.189 509.5,361C 499.172,360.5 488.839,360.334 478.5,360.5C 476.958,359.837 475.291,359.17 473.5,358.5C 478.323,352.046 480.323,344.713 479.5,336.5C 479.167,332.167 478.833,327.833 478.5,323.5C 477.943,321.668 476.943,320.335 475.5,319.5C 474.728,318.306 473.728,317.306 472.5,316.5C 469.188,309.855 464.188,304.855 457.5,301.5C 454.016,299.467 450.35,297.8 446.5,296.5C 437.044,294.831 427.877,296.164 419,300.5C 418.71,298.956 418.044,297.623 417,296.5C 415.396,299.409 413.896,302.409 412.5,305.5C 410.52,304.617 408.52,304.783 406.5,306C 405.88,308.473 405.214,310.973 404.5,313.5C 403.094,312.332 401.928,312.665 401,314.5C 399.971,320.123 399.471,325.79 399.5,331.5C 399.334,337.176 399.501,342.843 400,348.5C 400.374,350.491 401.207,352.158 402.5,353.5C 402.5,354.833 401.833,355.5 400.5,355.5C 395.473,351.14 390.806,346.473 386.5,341.5C 380.531,331.554 376.198,320.887 373.5,309.5C 372.994,302.139 372.161,294.806 371,287.5C 370.155,285.389 369.322,283.389 368.5,281.5C 365.834,264.836 361.001,248.836 354,233.5C 352.669,231.004 350.836,229.004 348.5,227.5C 342.833,220.893 335.833,219.06 327.5,222C 325.292,223.047 323.626,224.547 322.5,226.5C 320.983,226.511 319.816,227.177 319,228.5C 312.022,237.25 307.856,247.25 306.5,258.5C 304.052,265.279 302.052,272.279 300.5,279.5C 298.142,289.979 296.142,300.646 294.5,311.5C 293.08,314.261 292.413,317.261 292.5,320.5C 291.5,320.5 290.5,320.5 289.5,320.5C 287.932,328.297 284.765,335.297 280,341.5C 279.517,342.448 279.351,343.448 279.5,344.5C 276.527,348.14 273.194,351.473 269.5,354.5C 268.624,354.631 267.957,354.298 267.5,353.5C 269.141,350.442 269.974,347.108 270,343.5C 270.814,338.98 270.647,334.646 269.5,330.5C 268.833,329.167 268.167,327.833 267.5,326.5C 266.196,319.89 262.862,314.556 257.5,310.5C 255.36,307.939 253.027,305.605 250.5,303.5C 247.522,299.669 243.522,297.336 238.5,296.5C 231.858,295.336 225.192,295.169 218.5,296C 217.944,296.383 217.611,296.883 217.5,297.5C 217.5,297.833 217.5,298.167 217.5,298.5C 208.79,301.203 202.124,306.536 197.5,314.5C 194.523,316.482 192.523,319.315 191.5,323C 188.691,332.943 188.857,342.777 192,352.5C 192.759,354.063 193.926,355.063 195.5,355.5C 197.547,357.55 199.214,359.883 200.5,362.5C 197.811,360.89 194.811,360.057 191.5,360C 175.423,357.229 160.423,359.896 146.5,368C 142.024,372.458 138.69,377.625 136.5,383.5C 129.072,379.952 121.738,376.118 114.5,372C 112.907,371.051 111.574,369.885 110.5,368.5C 110.911,359.389 111.911,350.389 113.5,341.5C 122.303,341.135 130.97,339.968 139.5,338C 162.157,329.022 181.157,315.189 196.5,296.5C 203.937,285.399 209.77,273.399 214,260.5C 217.519,245.849 218.352,231.182 216.5,216.5C 215.994,205.801 213.327,195.801 208.5,186.5C 208.81,183.287 208.477,180.287 207.5,177.5C 207.5,177.167 207.5,176.833 207.5,176.5C 207.577,173.491 206.244,171.324 203.5,170C 198.511,169.501 193.511,169.334 188.5,169.5C 188.5,170.5 188.5,171.5 188.5,172.5C 187.5,172.5 186.5,172.5 185.5,172.5C 185.768,174.099 185.434,175.432 184.5,176.5C 184.341,173.845 183.341,171.512 181.5,169.5C 179.674,169.08 177.674,169.08 175.5,169.5C 176.167,168.5 176.833,167.5 177.5,166.5C 178.659,164.75 180.326,163.75 182.5,163.5C 187.737,162.436 192.737,160.603 197.5,158C 202.823,157.501 208.156,157.334 213.5,157.5C 213.5,158.833 213.5,160.167 213.5,161.5C 212.062,164.083 212.396,166.417 214.5,168.5C 216.288,169.622 218.288,169.789 220.5,169C 223.833,165.667 227.167,162.333 230.5,159C 241.67,151.131 253.337,144.297 265.5,138.5C 267.385,136.689 269.719,135.522 272.5,135C 277.694,133.1 283.027,131.933 288.5,131.5C 294.738,131.608 300.738,130.441 306.5,128C 329.206,127.181 351.873,127.681 374.5,129.5 Z"/></g>
<g><path style="opacity:1" fill="#e49f5e" d="M 374.5,129.5 C 377.167,129.833 379.833,130.167 382.5,130.5C 387,131.709 391.333,133.376 395.5,135.5C 388.015,134.746 381.015,132.746 374.5,129.5 Z"/></g>
<g><path style="opacity:1" fill="#e59c5a" d="M 265.5,138.5 C 253.337,144.297 241.67,151.131 230.5,159C 227.167,162.333 223.833,165.667 220.5,169C 218.288,169.789 216.288,169.622 214.5,168.5C 216.199,168.66 217.866,168.494 219.5,168C 232.488,154.349 247.822,144.516 265.5,138.5 Z"/></g>
<g><path style="opacity:1" fill="#e8984d" d="M 478.5,160.5 C 471.862,159.502 465.195,159.335 458.5,160C 457.88,162.473 457.214,164.973 456.5,167.5C 453.594,170.014 450.927,170.014 448.5,167.5C 454.082,169.389 455.916,167.389 454,161.5C 452.256,160.351 452.089,159.017 453.5,157.5C 462.365,155.502 470.698,156.502 478.5,160.5 Z"/></g>
<g><path style="opacity:1" fill="#e5a66c" d="M 213.5,161.5 C 213.5,160.167 213.5,158.833 213.5,157.5C 208.156,157.334 202.823,157.501 197.5,158C 192.737,160.603 187.737,162.436 182.5,163.5C 183.058,162.21 184.058,161.377 185.5,161C 195.068,156.739 205.068,155.406 215.5,157C 216.795,159.245 216.128,160.745 213.5,161.5 Z"/></g>
<g><path style="opacity:1" fill="#e4914c" d="M 485.5,212.5 C 485.167,212.5 484.833,212.5 484.5,212.5C 484.667,201.495 484.5,190.495 484,179.5C 483.208,176.894 481.708,174.894 479.5,173.5C 477.944,171.012 475.611,170.012 472.5,170.5C 470.833,170.667 469.167,170.833 467.5,171C 466.295,172.376 464.962,173.542 463.5,174.5C 463.238,173.022 463.571,171.689 464.5,170.5C 470.561,167.51 476.394,167.844 482,171.5C 483.699,170.594 485.533,170.261 487.5,170.5C 487.756,172.912 486.756,174.579 484.5,175.5C 485.48,187.783 485.813,200.116 485.5,212.5 Z"/></g>
<g><path style="opacity:1" fill="#351926" d="M 479.5,173.5 C 473.566,171.572 468.232,172.572 463.5,176.5C 463.5,175.833 463.5,175.167 463.5,174.5C 464.962,173.542 466.295,172.376 467.5,171C 469.167,170.833 470.833,170.667 472.5,170.5C 475.611,170.012 477.944,171.012 479.5,173.5 Z"/></g>
<g><path style="opacity:1" fill="#e7a269" d="M 177.5,166.5 C 176.833,167.5 176.167,168.5 175.5,169.5C 170.753,171.912 167.42,175.579 165.5,180.5C 164.5,180.5 163.5,180.5 162.5,180.5C 166.217,174.45 171.217,169.783 177.5,166.5 Z"/></g>
<g><path style="opacity:1" fill="#371c2b" d="M 202.5,171.5 C 199.5,171.5 196.5,171.5 193.5,171.5C 193.67,172.822 193.337,173.989 192.5,175C 188.269,175.043 186.436,177.21 187,181.5C 186.563,198.861 185.396,215.861 183.5,232.5C 184.166,224.517 184.499,216.517 184.5,208.5C 184.785,198.159 185.285,187.826 186,177.5C 189.77,170.662 195.27,168.662 202.5,171.5 Z"/></g>
<g><path style="opacity:1" fill="#291b3e" d="M 202.5,171.5 C 202.628,173.09 203.295,174.423 204.5,175.5C 205.499,191.82 205.833,208.153 205.5,224.5C 205.5,225.833 205.5,227.167 205.5,228.5C 203.2,236.215 201.866,244.215 201.5,252.5C 199.829,257.845 198.163,263.178 196.5,268.5C 195.624,268.369 194.957,268.702 194.5,269.5C 190.361,275.925 186.361,282.258 182.5,288.5C 180.167,290.167 178.167,292.167 176.5,294.5C 176.5,294.833 176.5,295.167 176.5,295.5C 172.908,297.419 169.575,299.752 166.5,302.5C 166.167,302.5 165.833,302.5 165.5,302.5C 165.722,300.393 166.722,298.726 168.5,297.5C 166.73,294.807 166.063,291.807 166.5,288.5C 165.167,288.5 163.833,288.5 162.5,288.5C 162.664,285.813 162.497,283.146 162,280.5C 159.5,282.667 157,284.833 154.5,287C 153.552,287.483 152.552,287.649 151.5,287.5C 151.421,288.93 151.754,290.264 152.5,291.5C 151.624,292.251 150.624,292.751 149.5,293C 151.559,294.185 151.726,295.352 150,296.5C 148.036,295.148 145.869,294.314 143.5,294C 136.5,293.667 129.5,293.333 122.5,293C 121.944,292.617 121.611,292.117 121.5,291.5C 128.929,293.331 135.929,292.664 142.5,289.5C 148.705,287.993 154.039,284.993 158.5,280.5C 160.255,279.928 161.922,279.094 163.5,278C 166.091,274.926 168.424,271.759 170.5,268.5C 173.259,264.575 175.259,260.242 176.5,255.5C 177.11,254.609 177.443,253.609 177.5,252.5C 177.833,252.5 178.167,252.5 178.5,252.5C 179.496,252.586 180.329,252.252 181,251.5C 182.884,245.331 183.718,238.998 183.5,232.5C 185.396,215.861 186.563,198.861 187,181.5C 186.436,177.21 188.269,175.043 192.5,175C 193.337,173.989 193.67,172.822 193.5,171.5C 196.5,171.5 199.5,171.5 202.5,171.5 Z"/></g>
<g><path style="opacity:1" fill="#5b3532" d="M 552.5,186.5 C 548.985,185.081 545.319,184.414 541.5,184.5C 541.834,187.491 540.834,189.824 538.5,191.5C 538.979,188.936 539.645,186.436 540.5,184C 543.5,183.333 546.5,183.333 549.5,184C 550.942,184.377 551.942,185.21 552.5,186.5 Z"/></g>
<g><path style="opacity:1" fill="#b57753" d="M 128.5,185.5 C 128.5,186.833 128.5,188.167 128.5,189.5C 127.751,188.469 127.085,187.302 126.5,186C 120.486,186.171 114.82,187.671 109.5,190.5C 109.833,189.833 110.167,189.167 110.5,188.5C 115.281,186.739 120.114,185.073 125,183.5C 126.434,183.862 127.601,184.528 128.5,185.5 Z"/></g>
<g><path style="opacity:1" fill="#d88d58" d="M 207.5,176.5 C 206.194,174.527 204.527,172.861 202.5,171.5C 195.27,168.662 189.77,170.662 186,177.5C 185.285,187.826 184.785,198.159 184.5,208.5C 184.167,208.5 183.833,208.5 183.5,208.5C 183.172,197.654 183.506,186.987 184.5,176.5C 185.434,175.432 185.768,174.099 185.5,172.5C 186.5,172.5 187.5,172.5 188.5,172.5C 188.5,171.5 188.5,170.5 188.5,169.5C 193.511,169.334 198.511,169.501 203.5,170C 206.244,171.324 207.577,173.491 207.5,176.5 Z"/></g>
<g><path style="opacity:1" fill="#3e1e29" d="M 524.5,190.5 C 524.5,190.167 524.5,189.833 524.5,189.5C 528.565,191.278 532.899,191.945 537.5,191.5C 537.389,192.117 537.056,192.617 536.5,193C 532.019,194.112 528.019,193.279 524.5,190.5 Z"/></g>
<g><path style="opacity:1" fill="#3d1828" d="M 202.5,171.5 C 204.527,172.861 206.194,174.527 207.5,176.5C 207.5,176.833 207.5,177.167 207.5,177.5C 207.818,193.365 207.151,209.031 205.5,224.5C 205.833,208.153 205.499,191.82 204.5,175.5C 203.295,174.423 202.628,173.09 202.5,171.5 Z"/></g>
<g><path style="opacity:1" fill="#c27e59" d="M 567.5,196.5 C 570.573,198.569 572.906,201.236 574.5,204.5C 571.427,202.431 569.094,199.764 567.5,196.5 Z"/></g>
<g><path style="opacity:1" fill="#c77d55" d="M 105.5,193.5 C 103.1,196.903 100.1,199.57 96.5,201.5C 98.8998,198.097 101.9,195.43 105.5,193.5 Z"/></g>
<g><path style="opacity:1" fill="#f09240" d="M 184.5,176.5 C 183.506,186.987 183.172,197.654 183.5,208.5C 183.052,216.52 182.385,224.52 181.5,232.5C 177.02,241.171 171.854,249.504 166,257.5C 162.6,260.414 159.1,263.08 155.5,265.5C 127.719,275.677 106.886,267.677 93,241.5C 90.2006,234.446 88.7006,227.112 88.5,219.5C 90.4605,215.251 92.1272,210.918 93.5,206.5C 93.7497,204.326 94.7497,202.659 96.5,201.5C 100.1,199.57 103.1,196.903 105.5,193.5C 106.262,191.738 107.596,190.738 109.5,190.5C 114.82,187.671 120.486,186.171 126.5,186C 127.085,187.302 127.751,188.469 128.5,189.5C 129.254,192.091 130.921,193.924 133.5,195C 137.88,194.684 142.213,194.851 146.5,195.5C 148.199,195.66 149.866,195.494 151.5,195C 153.726,192.047 155.559,188.88 157,185.5C 158.704,183.627 160.537,181.96 162.5,180.5C 163.5,180.5 164.5,180.5 165.5,180.5C 167.42,175.579 170.753,171.912 175.5,169.5C 177.674,169.08 179.674,169.08 181.5,169.5C 183.341,171.512 184.341,173.845 184.5,176.5 Z"/></g>
<g><path style="opacity:1" fill="#d88f57" d="M 128.5,189.5 C 132.752,193.822 137.419,194.489 142.5,191.5C 143.5,190.833 144.5,190.167 145.5,189.5C 145.517,191.565 145.85,193.565 146.5,195.5C 142.213,194.851 137.88,194.684 133.5,195C 130.921,193.924 129.254,192.091 128.5,189.5 Z"/></g>
<g><path style="opacity:1" fill="#34192c" d="M 128.5,185.5 C 129.404,186.209 129.737,187.209 129.5,188.5C 131.144,188.714 132.644,188.38 134,187.5C 134.684,188.784 134.517,189.951 133.5,191C 136.372,192.451 139.372,192.618 142.5,191.5C 137.419,194.489 132.752,193.822 128.5,189.5C 128.5,188.167 128.5,186.833 128.5,185.5 Z"/></g>
<g><path style="opacity:1" fill="#c3764c" d="M 93.5,206.5 C 92.1272,210.918 90.4605,215.251 88.5,219.5C 87.3127,221.072 86.3127,222.739 85.5,224.5C 86.5771,217.688 89.2437,211.688 93.5,206.5 Z"/></g>
<g><path style="opacity:1" fill="#fce9d2" d="M 348.5,227.5 C 340.017,221.858 331.35,221.524 322.5,226.5C 323.626,224.547 325.292,223.047 327.5,222C 335.833,219.06 342.833,220.893 348.5,227.5 Z"/></g>
<g><path style="opacity:1" fill="#d85829" d="M 208.5,186.5 C 213.327,195.801 215.994,205.801 216.5,216.5C 215.38,227.352 214.547,238.352 214,249.5C 213.71,251.952 213.044,254.285 212,256.5C 211.667,255.833 211.333,255.167 211,254.5C 210.505,256.473 210.338,258.473 210.5,260.5C 208.738,260.357 207.071,260.691 205.5,261.5C 204.5,263.167 203.167,264.5 201.5,265.5C 201.162,263.345 201.162,261.011 201.5,258.5C 203.841,258.008 205.841,256.841 207.5,255C 205.863,251.715 205.196,248.215 205.5,244.5C 207.875,225.268 208.875,205.935 208.5,186.5 Z"/></g>
<g><path style="opacity:1" fill="#fefdfd" d="M 348.5,227.5 C 350.836,229.004 352.669,231.004 354,233.5C 361.001,248.836 365.834,264.836 368.5,281.5C 369.058,287.846 369.724,294.179 370.5,300.5C 371.089,305.481 371.589,310.481 372,315.5C 375.63,322.661 378.963,329.995 382,337.5C 383.049,339.384 384.549,340.718 386.5,341.5C 390.806,346.473 395.473,351.14 400.5,355.5C 401.802,357.822 403.802,359.155 406.5,359.5C 410.539,364.54 415.206,368.873 420.5,372.5C 421.423,376.563 423.089,380.23 425.5,383.5C 431.498,394.67 439.831,403.837 450.5,411C 455.765,413.801 461.099,416.301 466.5,418.5C 472.472,420.923 478.805,421.923 485.5,421.5C 491.409,421.651 497.075,420.984 502.5,419.5C 511.489,417.506 519.156,413.172 525.5,406.5C 529.803,401.571 532.136,395.904 532.5,389.5C 533.309,387.708 533.809,385.708 534,383.5C 535.878,382.947 537.378,381.947 538.5,380.5C 542.546,378.161 546.546,375.827 550.5,373.5C 553.833,371.833 557.167,370.167 560.5,368.5C 560.666,373.179 560.499,377.845 560,382.5C 556.573,392.846 552.24,402.846 547,412.5C 540.239,420.978 533.073,429.145 525.5,437C 503.535,454.688 478.535,466.521 450.5,472.5C 414.763,478.801 378.763,481.467 342.5,480.5C 298.47,482.013 254.804,478.847 211.5,471C 179.177,461.694 151.343,444.861 128,420.5C 120.925,409.016 114.925,397.016 110,384.5C 108.905,379.22 108.405,373.887 108.5,368.5C 109.167,368.5 109.833,368.5 110.5,368.5C 111.574,369.885 112.907,371.051 114.5,372C 121.738,376.118 129.072,379.952 136.5,383.5C 136.259,398.11 142.592,408.943 155.5,416C 167.316,422.737 179.65,424.237 192.5,420.5C 192.833,420.5 193.167,420.5 193.5,420.5C 205.834,418.333 216.501,413 225.5,404.5C 229.402,402.107 232.902,399.107 236,395.5C 238.28,391.553 240.947,387.887 244,384.5C 246.354,380.797 247.854,376.797 248.5,372.5C 248.5,372.167 248.5,371.833 248.5,371.5C 254.264,369.278 258.931,365.612 262.5,360.5C 265.427,359.243 267.761,357.243 269.5,354.5C 273.194,351.473 276.527,348.14 279.5,344.5C 284.834,337.175 289.167,329.175 292.5,320.5C 292.413,317.261 293.08,314.261 294.5,311.5C 295.816,308.592 296.816,305.592 297.5,302.5C 298.972,299.731 300.139,296.731 301,293.5C 302.878,281.924 304.712,270.257 306.5,258.5C 307.856,247.25 312.022,237.25 319,228.5C 319.816,227.177 320.983,226.511 322.5,226.5C 331.35,221.524 340.017,221.858 348.5,227.5 Z"/></g>
<g><path style="opacity:1" fill="#c47047" d="M 183.5,208.5 C 183.833,208.5 184.167,208.5 184.5,208.5C 184.499,216.517 184.166,224.517 183.5,232.5C 181.605,238.93 179.939,245.597 178.5,252.5C 178.167,252.5 177.833,252.5 177.5,252.5C 177.756,250.208 177.423,248.041 176.5,246C 177.448,245.517 178.448,245.351 179.5,245.5C 180.901,241.369 181.567,237.036 181.5,232.5C 182.385,224.52 183.052,216.52 183.5,208.5 Z"/></g>
<g><path style="opacity:1" fill="#b3553e" d="M 207.5,177.5 C 208.477,180.287 208.81,183.287 208.5,186.5C 208.875,205.935 207.875,225.268 205.5,244.5C 205.167,244.5 204.833,244.5 204.5,244.5C 204.687,239.155 205.02,233.822 205.5,228.5C 205.5,227.167 205.5,225.833 205.5,224.5C 207.151,209.031 207.818,193.365 207.5,177.5 Z"/></g>
<g><path style="opacity:1" fill="#c17348" d="M 484.5,212.5 C 484.833,212.5 485.167,212.5 485.5,212.5C 486.167,218.167 486.833,223.833 487.5,229.5C 487.5,231.833 487.5,234.167 487.5,236.5C 485.72,228.736 484.72,220.736 484.5,212.5 Z"/></g>
<g><path style="opacity:1" fill="#ae5037" d="M 462.5,178.5 C 462.5,194.5 462.5,210.5 462.5,226.5C 462.437,231.203 462.771,235.87 463.5,240.5C 461.513,222.197 460.846,203.53 461.5,184.5C 461.205,182.265 461.539,180.265 462.5,178.5 Z"/></g>
<g><path style="opacity:1" fill="#40212d" d="M 479.5,173.5 C 481.708,174.894 483.208,176.894 484,179.5C 484.5,190.495 484.667,201.495 484.5,212.5C 484.72,220.736 485.72,228.736 487.5,236.5C 487.5,237.833 487.5,239.167 487.5,240.5C 485.578,238.963 483.912,237.13 482.5,235C 483.627,216.849 483.461,198.682 482,180.5C 481.616,177.94 480.783,175.606 479.5,173.5 Z"/></g>
<g><path style="opacity:1" fill="#bd5c3d" d="M 580.5,214.5 C 581.117,214.611 581.617,214.944 582,215.5C 582.849,218.521 583.683,221.521 584.5,224.5C 585.098,236.293 584.265,247.96 582,259.5C 581.066,260.858 580.232,262.192 579.5,263.5C 583.269,251.191 584.435,238.524 583,225.5C 582.148,224.429 581.315,223.429 580.5,222.5C 580.5,219.833 580.5,217.167 580.5,214.5 Z"/></g>
<g><path style="opacity:1" fill="#7a3c35" d="M 462.5,226.5 C 463.972,230.919 464.638,235.586 464.5,240.5C 464.167,240.5 463.833,240.5 463.5,240.5C 462.771,235.87 462.437,231.203 462.5,226.5 Z"/></g>
<g><path style="opacity:1" fill="#3d1b32" d="M 205.5,228.5 C 205.02,233.822 204.687,239.155 204.5,244.5C 204.097,247.486 203.097,250.152 201.5,252.5C 201.866,244.215 203.2,236.215 205.5,228.5 Z"/></g>
<g><path style="opacity:1" fill="#bb5639" d="M 85.5,224.5 C 85.0069,236.328 86.0069,247.994 88.5,259.5C 87.8826,259.389 87.3826,259.056 87,258.5C 84.4427,247.119 83.9427,235.786 85.5,224.5 Z"/></g>
<g><path style="opacity:1" fill="#d85c2b" d="M 461.5,184.5 C 460.846,203.53 461.513,222.197 463.5,240.5C 463.833,240.5 464.167,240.5 464.5,240.5C 464.5,241.833 464.5,243.167 464.5,244.5C 464.312,251.666 466.312,258 470.5,263.5C 472.588,265.336 473.921,267.669 474.5,270.5C 474.343,271.873 474.51,273.207 475,274.5C 476.921,279.508 479.754,283.841 483.5,287.5C 484.711,288.72 484.711,289.887 483.5,291C 485.376,291.918 486.376,293.418 486.5,295.5C 486.189,296.478 485.522,297.145 484.5,297.5C 483.264,296.754 481.93,296.421 480.5,296.5C 480.5,297.5 480.5,298.5 480.5,299.5C 479.167,299.5 477.833,299.5 476.5,299.5C 448.816,264.214 443.816,225.881 461.5,184.5 Z"/></g>
<g><path style="opacity:1" fill="#422033" d="M 183.5,232.5 C 183.718,238.998 182.884,245.331 181,251.5C 180.329,252.252 179.496,252.586 178.5,252.5C 179.939,245.597 181.605,238.93 183.5,232.5 Z"/></g>
<g><path style="opacity:1" fill="#b0533b" d="M 464.5,244.5 C 466.077,250.901 468.077,257.234 470.5,263.5C 466.312,258 464.312,251.666 464.5,244.5 Z"/></g>
<g><path style="opacity:1" fill="#bd7a4d" d="M 244.5,258.5 C 247.355,257.197 250.355,257.197 253.5,258.5C 253.863,259.183 254.196,259.85 254.5,260.5C 253.167,260.167 251.833,259.833 250.5,259.5C 248.735,258.539 246.735,258.205 244.5,258.5 Z"/></g>
<g><path style="opacity:1" fill="#d65f2b" d="M 181.5,232.5 C 181.567,237.036 180.901,241.369 179.5,245.5C 178.448,245.351 177.448,245.517 176.5,246C 177.423,248.041 177.756,250.208 177.5,252.5C 177.443,253.609 177.11,254.609 176.5,255.5C 174.583,256.116 173.416,257.45 173,259.5C 172.107,258.289 171.274,258.289 170.5,259.5C 169.359,260.425 169.359,261.259 170.5,262C 169.207,262.49 167.873,262.657 166.5,262.5C 166.649,263.552 166.483,264.552 166,265.5C 164.989,264.663 163.822,264.33 162.5,264.5C 162.558,268.701 161.558,269.201 159.5,266C 158.207,265.51 156.873,265.343 155.5,265.5C 159.1,263.08 162.6,260.414 166,257.5C 171.854,249.504 177.02,241.171 181.5,232.5 Z"/></g>
<g><path style="opacity:1" fill="#341f3a" d="M 432.5,264.5 C 432.5,267.167 432.5,269.833 432.5,272.5C 431.222,272.782 430.222,273.449 429.5,274.5C 429.666,270.486 429.499,266.486 429,262.5C 426.244,264.771 423.41,264.771 420.5,262.5C 418.142,262.753 415.808,263.086 413.5,263.5C 413.703,265.39 413.037,266.89 411.5,268C 411.957,268.414 412.291,268.914 412.5,269.5C 411.726,270.711 410.893,270.711 410,269.5C 409.667,270.5 409.333,271.5 409,272.5C 408.329,271.748 407.496,271.414 406.5,271.5C 408.5,269.167 410.5,266.833 412.5,264.5C 416.809,257.949 422.475,256.782 429.5,261C 430.163,262.518 431.163,263.685 432.5,264.5 Z"/></g>
<g><path style="opacity:1" fill="#bc5d42" d="M 493.5,256.5 C 496.57,260.008 498.903,264.008 500.5,268.5C 499.167,267.167 497.833,265.833 496.5,264.5C 495.5,261.833 494.5,259.167 493.5,256.5 Z"/></g>
<g><path style="opacity:1" fill="#271a3e" d="M 429.5,274.5 C 423.139,281.193 416.806,287.86 410.5,294.5C 409.167,294.833 407.833,295.167 406.5,295.5C 401.243,295.93 398.243,293.597 397.5,288.5C 396.5,288.5 395.5,288.5 394.5,288.5C 394.5,286.5 394.5,284.5 394.5,282.5C 398.5,278.833 402.5,275.167 406.5,271.5C 407.496,271.414 408.329,271.748 409,272.5C 409.333,271.5 409.667,270.5 410,269.5C 410.893,270.711 411.726,270.711 412.5,269.5C 412.291,268.914 411.957,268.414 411.5,268C 413.037,266.89 413.703,265.39 413.5,263.5C 415.808,263.086 418.142,262.753 420.5,262.5C 423.41,264.771 426.244,264.771 429,262.5C 429.499,266.486 429.666,270.486 429.5,274.5 Z"/></g>
<g><path style="opacity:1" fill="#e19052" d="M 432.5,264.5 C 431.163,263.685 430.163,262.518 429.5,261C 422.475,256.782 416.809,257.949 412.5,264.5C 409.569,266.091 406.902,268.091 404.5,270.5C 404.5,268.5 404.5,266.5 404.5,264.5C 408.088,263.521 411.421,262.188 414.5,260.5C 414.5,259.5 414.5,258.5 414.5,257.5C 419.544,257.173 424.544,257.506 429.5,258.5C 431.038,260.243 432.038,262.243 432.5,264.5 Z"/></g>
<g><path style="opacity:1" fill="#b14e34" d="M 88.5,261.5 C 89.5,261.5 90.5,261.5 91.5,261.5C 92.7701,266.707 95.1035,271.374 98.5,275.5C 98.5,275.833 98.5,276.167 98.5,276.5C 97.8333,276.167 97.1667,275.833 96.5,275.5C 95.8897,273.566 94.8897,271.899 93.5,270.5C 91.5832,267.669 89.9166,264.669 88.5,261.5 Z"/></g>
<g><path style="opacity:1" fill="#3f2128" d="M 244.5,258.5 C 246.735,258.205 248.735,258.539 250.5,259.5C 240.855,259.331 237.355,263.997 240,273.5C 241.039,274.244 241.539,275.244 241.5,276.5C 237.76,273.401 236.593,269.401 238,264.5C 239.406,261.591 241.572,259.591 244.5,258.5 Z"/></g>
<g><path style="opacity:1" fill="#421b2a" d="M 496.5,264.5 C 497.833,265.833 499.167,267.167 500.5,268.5C 501.6,269.605 502.267,270.938 502.5,272.5C 500.825,270.998 498.992,269.665 497,268.5C 496.51,267.207 496.343,265.873 496.5,264.5 Z"/></g>
<g><path style="opacity:1" fill="#291d3f" d="M 250.5,259.5 C 251.833,259.833 253.167,260.167 254.5,260.5C 259.833,266.167 265.167,271.833 270.5,277.5C 271.815,280.156 273.148,282.823 274.5,285.5C 274.021,289.114 273.021,291.78 271.5,293.5C 268.342,294.876 265.009,295.542 261.5,295.5C 254.222,289.891 247.556,283.558 241.5,276.5C 241.539,275.244 241.039,274.244 240,273.5C 237.355,263.997 240.855,259.331 250.5,259.5 Z"/></g>
<g><path style="opacity:1" fill="#d45a2c" d="M 580.5,222.5 C 581.315,223.429 582.148,224.429 583,225.5C 584.435,238.524 583.269,251.191 579.5,263.5C 575.851,271.806 570.517,278.806 563.5,284.5C 560.331,285.917 557.331,287.583 554.5,289.5C 547.27,291.112 539.937,291.779 532.5,291.5C 529.678,290.493 526.678,289.66 523.5,289C 521.517,287.111 519.184,285.778 516.5,285C 511.665,280.997 506.998,276.83 502.5,272.5C 502.267,270.938 501.6,269.605 500.5,268.5C 498.903,264.008 496.57,260.008 493.5,256.5C 490.897,251.354 488.897,246.02 487.5,240.5C 487.5,239.167 487.5,237.833 487.5,236.5C 487.5,234.167 487.5,231.833 487.5,229.5C 491.029,236.862 494.862,244.195 499,251.5C 502.036,254.704 505.203,257.704 508.5,260.5C 522.005,271.88 536.671,273.547 552.5,265.5C 570.606,257.03 579.939,242.696 580.5,222.5 Z"/></g>
<g><path style="opacity:1" fill="#f0863d" d="M 552.5,265.5 C 536.671,273.547 522.005,271.88 508.5,260.5C 509.583,260.461 510.583,260.127 511.5,259.5C 513.968,260.803 516.301,262.303 518.5,264C 520.441,264.743 522.274,264.576 524,263.5C 524.333,264.5 524.667,265.5 525,266.5C 532.719,266.197 540.552,265.53 548.5,264.5C 549.736,265.246 551.07,265.579 552.5,265.5 Z"/></g>
<g><path style="opacity:1" fill="#512331" d="M 170.5,268.5 C 168.424,271.759 166.091,274.926 163.5,278C 161.922,279.094 160.255,279.928 158.5,280.5C 162.06,276.055 166.06,272.055 170.5,268.5 Z"/></g>
<g><path style="opacity:1" fill="#d65829" d="M 88.5,219.5 C 88.7006,227.112 90.2006,234.446 93,241.5C 106.886,267.677 127.719,275.677 155.5,265.5C 155.586,266.496 155.252,267.329 154.5,268C 152.871,268.585 151.371,269.419 150,270.5C 148.56,269.852 147.06,269.519 145.5,269.5C 145.719,270.675 145.386,271.675 144.5,272.5C 138.561,271.543 132.561,271.21 126.5,271.5C 126.5,273.167 126.5,274.833 126.5,276.5C 123.167,276.5 119.833,276.5 116.5,276.5C 116.5,277.833 116.5,279.167 116.5,280.5C 113.031,281.113 111.031,279.779 110.5,276.5C 109.167,276.5 107.833,276.5 106.5,276.5C 106.5,275.167 106.5,273.833 106.5,272.5C 104.255,274.361 101.588,275.361 98.5,275.5C 95.1035,271.374 92.7701,266.707 91.5,261.5C 90.5,261.5 89.5,261.5 88.5,261.5C 88.5,260.833 88.5,260.167 88.5,259.5C 86.0069,247.994 85.0069,236.328 85.5,224.5C 86.3127,222.739 87.3127,221.072 88.5,219.5 Z"/></g>
<g><path style="opacity:1" fill="#d5572e" d="M 176.5,255.5 C 175.259,260.242 173.259,264.575 170.5,268.5C 166.06,272.055 162.06,276.055 158.5,280.5C 155.959,281.649 153.459,281.649 151,280.5C 150.5,281 150,281.5 149.5,282C 150.956,282.423 151.456,283.256 151,284.5C 147.952,286.094 145.118,287.76 142.5,289.5C 134.167,290.833 125.833,290.833 117.5,289.5C 116.833,289.167 116.167,288.833 115.5,288.5C 111.631,285.097 107.297,282.43 102.5,280.5C 100.736,279.674 99.4023,278.341 98.5,276.5C 98.5,276.167 98.5,275.833 98.5,275.5C 101.588,275.361 104.255,274.361 106.5,272.5C 106.5,273.833 106.5,275.167 106.5,276.5C 107.833,276.5 109.167,276.5 110.5,276.5C 111.031,279.779 113.031,281.113 116.5,280.5C 116.5,279.167 116.5,277.833 116.5,276.5C 119.833,276.5 123.167,276.5 126.5,276.5C 126.5,274.833 126.5,273.167 126.5,271.5C 132.561,271.21 138.561,271.543 144.5,272.5C 145.386,271.675 145.719,270.675 145.5,269.5C 147.06,269.519 148.56,269.852 150,270.5C 151.371,269.419 152.871,268.585 154.5,268C 155.252,267.329 155.586,266.496 155.5,265.5C 156.873,265.343 158.207,265.51 159.5,266C 161.558,269.201 162.558,268.701 162.5,264.5C 163.822,264.33 164.989,264.663 166,265.5C 166.483,264.552 166.649,263.552 166.5,262.5C 167.873,262.657 169.207,262.49 170.5,262C 169.359,261.259 169.359,260.425 170.5,259.5C 171.274,258.289 172.107,258.289 173,259.5C 173.416,257.45 174.583,256.116 176.5,255.5 Z"/></g>
<g><path style="opacity:1" fill="#451d30" d="M 584.5,224.5 C 585.491,230.979 585.824,237.646 585.5,244.5C 585.795,250.664 584.962,256.664 583,262.5C 580.524,267.219 577.858,271.886 575,276.5C 571.598,279.084 568.431,281.75 565.5,284.5C 564.833,284.5 564.167,284.5 563.5,284.5C 570.517,278.806 575.851,271.806 579.5,263.5C 580.232,262.192 581.066,260.858 582,259.5C 584.265,247.96 585.098,236.293 584.5,224.5 Z"/></g>
<g><path style="opacity:1" fill="#261c44" d="M 607.5,230.5 C 609.863,258.218 600.53,281.385 579.5,300C 577.595,301.421 575.595,302.588 573.5,303.5C 570.453,302.855 568.287,303.855 567,306.5C 566.505,304.527 566.338,302.527 566.5,300.5C 567.833,300.5 569.167,300.5 570.5,300.5C 570.666,296.486 570.499,292.486 570,288.5C 568.68,288.201 567.18,288.034 565.5,288C 566.171,287.014 566.171,285.847 565.5,284.5C 568.431,281.75 571.598,279.084 575,276.5C 577.858,271.886 580.524,267.219 583,262.5C 584.962,256.664 585.795,250.664 585.5,244.5C 587.268,240.956 588.102,236.956 588,232.5C 588.333,233.833 588.667,235.167 589,236.5C 590.14,233.898 590.973,231.231 591.5,228.5C 592.5,228.5 593.5,228.5 594.5,228.5C 594.238,227.022 594.571,225.689 595.5,224.5C 597.136,235.087 598.136,235.087 598.5,224.5C 601.049,224.441 603.049,225.441 604.5,227.5C 605.298,225.922 605.798,224.256 606,222.5C 606.183,225.365 606.683,228.031 607.5,230.5 Z"/></g>
<g><path style="opacity:1" fill="#4e1a22" d="M 93.5,270.5 C 94.8897,271.899 95.8897,273.566 96.5,275.5C 94.2407,274.656 93.2407,272.989 93.5,270.5 Z"/></g>
<g><path style="opacity:1" fill="#482627" d="M 412.5,264.5 C 410.5,266.833 408.5,269.167 406.5,271.5C 402.5,275.167 398.5,278.833 394.5,282.5C 397.434,278.227 400.767,274.227 404.5,270.5C 406.902,268.091 409.569,266.091 412.5,264.5 Z"/></g>
<g><path style="opacity:1" fill="#261c3f" d="M 81.5,185.5 C 82.1507,188.83 83.484,189.163 85.5,186.5C 89.6387,188.028 93.972,189.028 98.5,189.5C 95.6384,190.43 93.305,192.097 91.5,194.5C 89.2864,192.076 88.2864,192.743 88.5,196.5C 90.604,196.799 92.604,196.466 94.5,195.5C 95.8287,192.305 97.4954,191.972 99.5,194.5C 100.861,192.972 102.028,191.305 103,189.5C 103.333,189.833 103.667,190.167 104,190.5C 104.333,189.167 104.667,187.833 105,186.5C 106.725,187.464 108.559,188.131 110.5,188.5C 110.167,189.167 109.833,189.833 109.5,190.5C 107.596,190.738 106.262,191.738 105.5,193.5C 101.9,195.43 98.8998,198.097 96.5,201.5C 94.7497,202.659 93.7497,204.326 93.5,206.5C 89.2437,211.688 86.5771,217.688 85.5,224.5C 83.9427,235.786 84.4427,247.119 87,258.5C 87.3826,259.056 87.8826,259.389 88.5,259.5C 88.5,260.167 88.5,260.833 88.5,261.5C 89.9166,264.669 91.5832,267.669 93.5,270.5C 93.2407,272.989 94.2407,274.656 96.5,275.5C 97.1667,275.833 97.8333,276.167 98.5,276.5C 99.4023,278.341 100.736,279.674 102.5,280.5C 105.749,284.957 110.082,287.623 115.5,288.5C 116.167,288.833 116.833,289.167 117.5,289.5C 118.833,290.167 120.167,290.833 121.5,291.5C 121.611,292.117 121.944,292.617 122.5,293C 129.5,293.333 136.5,293.667 143.5,294C 145.869,294.314 148.036,295.148 150,296.5C 151.726,295.352 151.559,294.185 149.5,293C 150.624,292.751 151.624,292.251 152.5,291.5C 151.754,290.264 151.421,288.93 151.5,287.5C 152.552,287.649 153.552,287.483 154.5,287C 157,284.833 159.5,282.667 162,280.5C 162.497,283.146 162.664,285.813 162.5,288.5C 163.833,288.5 165.167,288.5 166.5,288.5C 166.063,291.807 166.73,294.807 168.5,297.5C 166.722,298.726 165.722,300.393 165.5,302.5C 162.717,304.535 160.05,306.535 157.5,308.5C 154.67,308.694 152.004,309.361 149.5,310.5C 140.701,311.249 131.868,311.916 123,312.5C 121.014,312.569 119.514,313.235 118.5,314.5C 117.662,314.842 117.328,315.508 117.5,316.5C 115.869,319.992 114.369,323.659 113,327.5C 112.333,326.167 111.667,326.167 111,327.5C 110.764,325.236 110.264,323.069 109.5,321C 107.19,320.503 104.857,320.337 102.5,320.5C 102.5,323.167 102.5,325.833 102.5,328.5C 100.167,328.5 97.8333,328.5 95.5,328.5C 95.5668,326.599 95.2335,324.766 94.5,323C 96.7647,319.188 97.9314,315.021 98,310.5C 99.9252,309.12 101.759,307.62 103.5,306C 102.549,302.943 102.216,299.777 102.5,296.5C 100.076,296.192 97.7427,296.526 95.5,297.5C 93.6409,300.019 91.6409,300.019 89.5,297.5C 88.8933,297.624 88.56,297.957 88.5,298.5C 67.3309,278.84 58.4976,254.507 62,225.5C 64.534,210.101 71.034,196.768 81.5,185.5 Z"/></g>
<g><path style="opacity:1" fill="#bb5736" d="M 196.5,268.5 C 194.571,273.525 192.237,278.359 189.5,283C 190.409,284.789 190.576,286.623 190,288.5C 188.583,285.007 187.083,284.84 185.5,288C 184.552,288.483 183.552,288.649 182.5,288.5C 186.361,282.258 190.361,275.925 194.5,269.5C 194.957,268.702 195.624,268.369 196.5,268.5 Z"/></g>
<g><path style="opacity:1" fill="#c68352" d="M 432.5,272.5 C 431.987,274.854 430.821,276.854 429,278.5C 422.891,284.124 416.725,289.457 410.5,294.5C 416.806,287.86 423.139,281.193 429.5,274.5C 430.222,273.449 431.222,272.782 432.5,272.5 Z"/></g>
<g><path style="opacity:1" fill="#a94937" d="M 102.5,280.5 C 107.297,282.43 111.631,285.097 115.5,288.5C 110.082,287.623 105.749,284.957 102.5,280.5 Z"/></g>
<g><path style="opacity:1" fill="#bc573f" d="M 158.5,280.5 C 154.039,284.993 148.705,287.993 142.5,289.5C 145.118,287.76 147.952,286.094 151,284.5C 151.456,283.256 150.956,282.423 149.5,282C 150,281.5 150.5,281 151,280.5C 153.459,281.649 155.959,281.649 158.5,280.5 Z"/></g>
<g><path style="opacity:1" fill="#d18757" d="M 393.5,282.5 C 393.368,285.57 393.701,288.57 394.5,291.5C 392.286,290.608 391.286,288.942 391.5,286.5C 391.34,284.645 392.007,283.312 393.5,282.5 Z"/></g>
<g><path style="opacity:1" fill="#e69e5d" d="M 368.5,281.5 C 369.322,283.389 370.155,285.389 371,287.5C 372.161,294.806 372.994,302.139 373.5,309.5C 372.816,306.408 371.816,303.408 370.5,300.5C 369.724,294.179 369.058,287.846 368.5,281.5 Z"/></g>
<g><path style="opacity:1" fill="#fdeddb" d="M 306.5,258.5 C 304.712,270.257 302.878,281.924 301,293.5C 300.139,296.731 298.972,299.731 297.5,302.5C 298.826,294.877 299.826,287.21 300.5,279.5C 302.052,272.279 304.052,265.279 306.5,258.5 Z"/></g>
<g><path style="opacity:1" fill="#381d2c" d="M 393.5,282.5 C 393.833,282.5 394.167,282.5 394.5,282.5C 394.5,284.5 394.5,286.5 394.5,288.5C 395.5,288.5 396.5,288.5 397.5,288.5C 398.243,293.597 401.243,295.93 406.5,295.5C 404.372,296.629 402.039,296.796 399.5,296C 397.638,294.634 395.972,293.134 394.5,291.5C 393.701,288.57 393.368,285.57 393.5,282.5 Z"/></g>
<g><path style="opacity:1" fill="#a15345" d="M 486.5,288.5 C 489.5,290.833 492.167,293.5 494.5,296.5C 490.833,294.833 488.167,292.167 486.5,288.5 Z"/></g>
<g><path style="opacity:1" fill="#90433a" d="M 117.5,289.5 C 125.833,290.833 134.167,290.833 142.5,289.5C 135.929,292.664 128.929,293.331 121.5,291.5C 120.167,290.833 118.833,290.167 117.5,289.5 Z"/></g>
<g><path style="opacity:1" fill="#954b3f" d="M 182.5,288.5 C 181.5,291.5 179.5,293.5 176.5,294.5C 178.167,292.167 180.167,290.167 182.5,288.5 Z"/></g>
<g><path style="opacity:1" fill="#3d1e2d" d="M 270.5,277.5 C 273.323,278.992 274.99,281.326 275.5,284.5C 275.322,293.604 270.655,297.604 261.5,296.5C 261.5,296.167 261.5,295.833 261.5,295.5C 265.009,295.542 268.342,294.876 271.5,293.5C 273.021,291.78 274.021,289.114 274.5,285.5C 273.148,282.823 271.815,280.156 270.5,277.5 Z"/></g>
<g><path style="opacity:1" fill="#271a3f" d="M 479.5,173.5 C 480.783,175.606 481.616,177.94 482,180.5C 483.461,198.682 483.627,216.849 482.5,235C 483.912,237.13 485.578,238.963 487.5,240.5C 488.897,246.02 490.897,251.354 493.5,256.5C 494.5,259.167 495.5,261.833 496.5,264.5C 496.343,265.873 496.51,267.207 497,268.5C 498.992,269.665 500.825,270.998 502.5,272.5C 506.998,276.83 511.665,280.997 516.5,285C 519.184,285.778 521.517,287.111 523.5,289C 526.678,289.66 529.678,290.493 532.5,291.5C 539.085,293.484 545.751,293.484 552.5,291.5C 553.713,291.253 554.38,290.586 554.5,289.5C 557.331,287.583 560.331,285.917 563.5,284.5C 564.167,284.5 564.833,284.5 565.5,284.5C 566.171,285.847 566.171,287.014 565.5,288C 567.18,288.034 568.68,288.201 570,288.5C 570.499,292.486 570.666,296.486 570.5,300.5C 569.167,300.5 567.833,300.5 566.5,300.5C 566.338,302.527 566.505,304.527 567,306.5C 568.287,303.855 570.453,302.855 573.5,303.5C 572.528,304.399 571.862,305.566 571.5,307C 572.617,309.731 573.283,312.565 573.5,315.5C 573.785,317.288 573.452,318.955 572.5,320.5C 571.012,318.851 570.012,316.851 569.5,314.5C 568.158,316.005 566.492,316.672 564.5,316.5C 565.799,320.37 566.466,324.37 566.5,328.5C 563.833,328.5 561.167,328.5 558.5,328.5C 558.802,331.059 558.468,333.393 557.5,335.5C 556.977,332.11 556.143,328.777 555,325.5C 554.617,324.944 554.117,324.611 553.5,324.5C 552.101,321.301 551.101,317.968 550.5,314.5C 542.988,313.696 535.321,313.03 527.5,312.5C 526.833,312.5 526.167,312.5 525.5,312.5C 519.579,309.045 513.245,306.378 506.5,304.5C 502.185,302.34 498.185,299.673 494.5,296.5C 492.167,293.5 489.5,290.833 486.5,288.5C 482.457,282.471 478.457,276.471 474.5,270.5C 473.921,267.669 472.588,265.336 470.5,263.5C 468.077,257.234 466.077,250.901 464.5,244.5C 464.5,243.167 464.5,241.833 464.5,240.5C 464.638,235.586 463.972,230.919 462.5,226.5C 462.5,210.5 462.5,194.5 462.5,178.5C 462.328,177.508 462.662,176.842 463.5,176.5C 468.232,172.572 473.566,171.572 479.5,173.5 Z"/></g>
<g><path style="opacity:1" fill="#3e172c" d="M 554.5,289.5 C 554.38,290.586 553.713,291.253 552.5,291.5C 545.751,293.484 539.085,293.484 532.5,291.5C 539.937,291.779 547.27,291.112 554.5,289.5 Z"/></g>
<g><path style="opacity:1" fill="#e0985e" d="M 300.5,279.5 C 299.826,287.21 298.826,294.877 297.5,302.5C 296.816,305.592 295.816,308.592 294.5,311.5C 296.142,300.646 298.142,289.979 300.5,279.5 Z"/></g>
<g><path style="opacity:1" fill="#e0975c" d="M 250.5,303.5 C 245.422,300.917 240.088,298.917 234.5,297.5C 228.977,296.289 223.31,296.289 217.5,297.5C 217.611,296.883 217.944,296.383 218.5,296C 225.192,295.169 231.858,295.336 238.5,296.5C 243.522,297.336 247.522,299.669 250.5,303.5 Z"/></g>
<g><path style="opacity:1" fill="#c48356" d="M 275.5,284.5 C 276.954,288.262 276.288,291.762 273.5,295C 271.694,295.81 270.194,296.976 269,298.5C 266.331,297.984 263.831,297.317 261.5,296.5C 270.655,297.604 275.322,293.604 275.5,284.5 Z"/></g>
<g><path style="opacity:1" fill="#724d3b" d="M 234.5,297.5 C 228.797,297.375 223.13,297.708 217.5,298.5C 217.5,298.167 217.5,297.833 217.5,297.5C 223.31,296.289 228.977,296.289 234.5,297.5 Z"/></g>
<g><path style="opacity:1" fill="#d35b2b" d="M 216.5,216.5 C 218.352,231.182 217.519,245.849 214,260.5C 209.77,273.399 203.937,285.399 196.5,296.5C 193.432,298.122 190.598,300.122 188,302.5C 186.238,302.056 186.405,301.556 188.5,301C 187.975,300.308 187.308,299.808 186.5,299.5C 185.205,301.328 184.205,303.328 183.5,305.5C 181.064,306.891 180.398,306.391 181.5,304C 180.234,303.691 179.067,303.191 178,302.5C 177.915,304.085 177.749,305.418 177.5,306.5C 176.672,305.585 175.672,304.919 174.5,304.5C 172.595,305.152 170.595,305.319 168.5,305C 172.292,307.475 171.958,309.642 167.5,311.5C 166.198,313.446 165.531,315.279 165.5,317C 164.668,317.688 164.002,317.521 163.5,316.5C 164.326,315.549 164.492,314.549 164,313.5C 162.349,316.221 160.682,316.554 159,314.5C 159.148,315.825 158.982,316.992 158.5,318C 157.234,318.309 156.067,318.809 155,319.5C 154.667,319.167 154.333,318.833 154,318.5C 153.186,322.01 151.019,324.344 147.5,325.5C 145.518,324.03 143.852,324.364 142.5,326.5C 141.833,325.167 141.167,323.833 140.5,322.5C 139.833,323.167 139.167,323.833 138.5,324.5C 136.902,324.39 135.235,324.057 133.5,323.5C 132.757,324.908 131.923,326.241 131,327.5C 130.692,326.692 130.192,326.025 129.5,325.5C 128.062,328.823 126.229,329.156 124,326.5C 124.195,328.126 124.195,329.793 124,331.5C 123.333,328.833 122.667,328.833 122,331.5C 121.581,330.328 120.915,329.328 120,328.5C 118.667,328.5 117.333,328.5 116,328.5C 115.397,331.656 115.897,334.656 117.5,337.5C 116.148,338.524 114.815,339.524 113.5,340.5C 113.672,339.508 113.338,338.842 112.5,338.5C 113.539,331.676 115.206,325.009 117.5,318.5C 118.404,317.791 118.737,316.791 118.5,315.5C 126.903,316.134 134.903,315.467 142.5,313.5C 145.078,313.02 147.412,312.02 149.5,310.5C 152.004,309.361 154.67,308.694 157.5,308.5C 160.45,307.692 163.117,306.358 165.5,304.5C 170.671,303.328 174.338,300.328 176.5,295.5C 176.5,295.167 176.5,294.833 176.5,294.5C 179.5,293.5 181.5,291.5 182.5,288.5C 183.552,288.649 184.552,288.483 185.5,288C 187.083,284.84 188.583,285.007 190,288.5C 190.576,286.623 190.409,284.789 189.5,283C 192.237,278.359 194.571,273.525 196.5,268.5C 198.163,263.178 199.829,257.845 201.5,252.5C 203.097,250.152 204.097,247.486 204.5,244.5C 204.833,244.5 205.167,244.5 205.5,244.5C 205.196,248.215 205.863,251.715 207.5,255C 205.841,256.841 203.841,258.008 201.5,258.5C 201.162,261.011 201.162,263.345 201.5,265.5C 203.167,264.5 204.5,263.167 205.5,261.5C 207.071,260.691 208.738,260.357 210.5,260.5C 210.338,258.473 210.505,256.473 211,254.5C 211.333,255.167 211.667,255.833 212,256.5C 213.044,254.285 213.71,251.952 214,249.5C 214.547,238.352 215.38,227.352 216.5,216.5 Z"/></g>
<g><path style="opacity:1" fill="#271d3f" d="M 234.5,297.5 C 240.088,298.917 245.422,300.917 250.5,303.5C 253.027,305.605 255.36,307.939 257.5,310.5C 259.997,313.355 261.664,316.688 262.5,320.5C 264.478,322.342 266.145,324.342 267.5,326.5C 268.337,337.173 267.004,347.506 263.5,357.5C 263.443,358.609 263.11,359.609 262.5,360.5C 258.931,365.612 254.264,369.278 248.5,371.5C 238.643,373.528 228.643,374.028 218.5,373C 215.715,371.274 212.715,370.107 209.5,369.5C 207.57,369.229 206.236,368.229 205.5,366.5C 205.167,366.5 204.833,366.5 204.5,366.5C 203.5,364.833 202.167,363.5 200.5,362.5C 199.214,359.883 197.547,357.55 195.5,355.5C 188.374,341.399 189.041,327.733 197.5,314.5C 202.124,306.536 208.79,301.203 217.5,298.5C 223.13,297.708 228.797,297.375 234.5,297.5 Z"/></g>
<g><path style="opacity:1" fill="#3a1c2c" d="M 446.5,296.5 C 450.35,297.8 454.016,299.467 457.5,301.5C 452.352,300.005 447.018,299.005 441.5,298.5C 435.34,298.775 429.34,299.775 423.5,301.5C 426.643,299.079 430.309,297.579 434.5,297C 438.486,296.501 442.486,296.334 446.5,296.5 Z"/></g>
<g><path style="opacity:1" fill="#bc583a" d="M 176.5,295.5 C 174.338,300.328 170.671,303.328 165.5,304.5C 165.833,303.833 166.167,303.167 166.5,302.5C 169.575,299.752 172.908,297.419 176.5,295.5 Z"/></g>
<g><path style="opacity:1" fill="#e7914d" d="M 446.5,296.5 C 442.486,296.334 438.486,296.501 434.5,297C 430.309,297.579 426.643,299.079 423.5,301.5C 414.522,305.812 407.855,312.478 403.5,321.5C 401.723,324.505 400.723,327.838 400.5,331.5C 400.167,331.5 399.833,331.5 399.5,331.5C 399.471,325.79 399.971,320.123 401,314.5C 401.928,312.665 403.094,312.332 404.5,313.5C 405.214,310.973 405.88,308.473 406.5,306C 408.52,304.783 410.52,304.617 412.5,305.5C 413.896,302.409 415.396,299.409 417,296.5C 418.044,297.623 418.71,298.956 419,300.5C 427.877,296.164 437.044,294.831 446.5,296.5 Z"/></g>
<g><path style="opacity:1" fill="#89403a" d="M 165.5,302.5 C 165.833,302.5 166.167,302.5 166.5,302.5C 166.167,303.167 165.833,303.833 165.5,304.5C 163.117,306.358 160.45,307.692 157.5,308.5C 160.05,306.535 162.717,304.535 165.5,302.5 Z"/></g>
<g><path style="opacity:1" fill="#421c2d" d="M 506.5,304.5 C 513.245,306.378 519.579,309.045 525.5,312.5C 520.387,311.295 515.387,309.795 510.5,308C 508.907,307.051 507.574,305.885 506.5,304.5 Z"/></g>
<g><path style="opacity:1" fill="#281c40" d="M 457.5,301.5 C 464.188,304.855 469.188,309.855 472.5,316.5C 473.027,320.749 474.361,324.749 476.5,328.5C 477.495,333.792 477.828,339.125 477.5,344.5C 476.391,351.523 473.391,357.523 468.5,362.5C 464.407,366.929 459.741,370.596 454.5,373.5C 453.833,373.5 453.167,373.5 452.5,373.5C 442.739,375.118 433.073,374.785 423.5,372.5C 422.5,372.5 421.5,372.5 420.5,372.5C 415.206,368.873 410.539,364.54 406.5,359.5C 405.154,357.463 403.82,355.463 402.5,353.5C 402.483,351.435 402.15,349.435 401.5,347.5C 401.084,338.716 401.751,330.049 403.5,321.5C 407.855,312.478 414.522,305.812 423.5,301.5C 429.34,299.775 435.34,298.775 441.5,298.5C 447.018,299.005 452.352,300.005 457.5,301.5 Z"/></g>
<g><path style="opacity:1" fill="#cc5d36" d="M 474.5,270.5 C 478.457,276.471 482.457,282.471 486.5,288.5C 488.167,292.167 490.833,294.833 494.5,296.5C 498.185,299.673 502.185,302.34 506.5,304.5C 507.574,305.885 508.907,307.051 510.5,308C 515.387,309.795 520.387,311.295 525.5,312.5C 525.833,313.167 526.167,313.833 526.5,314.5C 521.17,314.171 516.17,312.838 511.5,310.5C 509.97,310.64 508.97,311.307 508.5,312.5C 507.043,310.248 505.543,310.581 504,313.5C 503.405,312.101 503.572,310.768 504.5,309.5C 501.754,307.417 499.754,304.75 498.5,301.5C 495.021,298.427 491.021,296.427 486.5,295.5C 486.376,293.418 485.376,291.918 483.5,291C 484.711,289.887 484.711,288.72 483.5,287.5C 479.754,283.841 476.921,279.508 475,274.5C 474.51,273.207 474.343,271.873 474.5,270.5 Z"/></g>
<g><path style="opacity:1" fill="#f8f7fa" d="M 419.5,310.5 C 431.155,309.712 436.655,315.045 436,326.5C 431.861,336.986 424.695,339.819 414.5,335C 410.627,330.215 409.46,324.715 411,318.5C 413.098,314.897 415.932,312.23 419.5,310.5 Z"/></g>
<g><path style="opacity:1" fill="#351c37" d="M 149.5,310.5 C 147.412,312.02 145.078,313.02 142.5,313.5C 134.525,314.276 126.525,314.61 118.5,314.5C 119.514,313.235 121.014,312.569 123,312.5C 131.868,311.916 140.701,311.249 149.5,310.5 Z"/></g>
<g><path style="opacity:1" fill="#e06932" d="M 196.5,296.5 C 181.157,315.189 162.157,329.022 139.5,338C 130.97,339.968 122.303,341.135 113.5,341.5C 113.5,341.167 113.5,340.833 113.5,340.5C 114.815,339.524 116.148,338.524 117.5,337.5C 115.897,334.656 115.397,331.656 116,328.5C 117.333,328.5 118.667,328.5 120,328.5C 120.915,329.328 121.581,330.328 122,331.5C 122.667,328.833 123.333,328.833 124,331.5C 124.195,329.793 124.195,328.126 124,326.5C 126.229,329.156 128.062,328.823 129.5,325.5C 130.192,326.025 130.692,326.692 131,327.5C 131.923,326.241 132.757,324.908 133.5,323.5C 135.235,324.057 136.902,324.39 138.5,324.5C 139.167,323.833 139.833,323.167 140.5,322.5C 141.167,323.833 141.833,325.167 142.5,326.5C 143.852,324.364 145.518,324.03 147.5,325.5C 151.019,324.344 153.186,322.01 154,318.5C 154.333,318.833 154.667,319.167 155,319.5C 156.067,318.809 157.234,318.309 158.5,318C 158.982,316.992 159.148,315.825 159,314.5C 160.682,316.554 162.349,316.221 164,313.5C 164.492,314.549 164.326,315.549 163.5,316.5C 164.002,317.521 164.668,317.688 165.5,317C 165.531,315.279 166.198,313.446 167.5,311.5C 171.958,309.642 172.292,307.475 168.5,305C 170.595,305.319 172.595,305.152 174.5,304.5C 175.672,304.919 176.672,305.585 177.5,306.5C 177.749,305.418 177.915,304.085 178,302.5C 179.067,303.191 180.234,303.691 181.5,304C 180.398,306.391 181.064,306.891 183.5,305.5C 184.205,303.328 185.205,301.328 186.5,299.5C 187.308,299.808 187.975,300.308 188.5,301C 186.405,301.556 186.238,302.056 188,302.5C 190.598,300.122 193.432,298.122 196.5,296.5 Z"/></g>
<g><path style="opacity:1" fill="#faf9fb" d="M 241.5,310.5 C 253.542,310.044 259.376,315.711 259,327.5C 252.662,339.165 244.662,340.499 235,331.5C 231.34,322.526 233.506,315.526 241.5,310.5 Z"/></g>
<g><path style="opacity:1" fill="#4c1f2c" d="M 527.5,312.5 C 535.321,313.03 542.988,313.696 550.5,314.5C 543.492,314.666 536.492,314.5 529.5,314C 528.584,313.722 527.918,313.222 527.5,312.5 Z"/></g>
<g><path style="opacity:1" fill="#af5540" d="M 142.5,313.5 C 134.903,315.467 126.903,316.134 118.5,315.5C 118.737,316.791 118.404,317.791 117.5,318.5C 117.5,317.833 117.5,317.167 117.5,316.5C 117.328,315.508 117.662,314.842 118.5,314.5C 126.525,314.61 134.525,314.276 142.5,313.5 Z"/></g>
<g><path style="opacity:1" fill="#af5845" d="M 525.5,312.5 C 526.167,312.5 526.833,312.5 527.5,312.5C 527.918,313.222 528.584,313.722 529.5,314C 536.492,314.5 543.492,314.666 550.5,314.5C 551.101,317.968 552.101,321.301 553.5,324.5C 553.833,325.833 554.167,327.167 554.5,328.5C 553.143,327.41 552.143,326.076 551.5,324.5C 550.833,321.5 550.167,318.5 549.5,315.5C 541.648,315.825 533.982,315.492 526.5,314.5C 526.167,313.833 525.833,313.167 525.5,312.5 Z"/></g>
<g><path style="opacity:1" fill="#271e41" d="M 573.5,315.5 C 575.996,320.143 577.829,325.143 579,330.5C 584.073,350.889 585.739,371.556 584,392.5C 583.472,396.699 582.639,400.699 581.5,404.5C 581.5,399.167 581.5,393.833 581.5,388.5C 580.5,388.5 579.5,388.5 578.5,388.5C 578.5,391.167 578.5,393.833 578.5,396.5C 577.167,396.5 575.833,396.5 574.5,396.5C 574.5,399.167 574.5,401.833 574.5,404.5C 571.833,404.5 569.167,404.5 566.5,404.5C 566.5,405.833 566.5,407.167 566.5,408.5C 567.833,408.5 569.167,408.5 570.5,408.5C 570.5,411.167 570.5,413.833 570.5,416.5C 569.167,416.5 567.833,416.5 566.5,416.5C 566.5,419.167 566.5,421.833 566.5,424.5C 565.167,424.5 563.833,424.5 562.5,424.5C 562.5,421.833 562.5,419.167 562.5,416.5C 560.5,416.5 558.5,416.5 556.5,416.5C 557.084,419.285 556.084,420.952 553.5,421.5C 560.71,404.236 563.376,386.236 561.5,367.5C 561.677,363.766 561.344,360.099 560.5,356.5C 560.167,353.167 559.833,349.833 559.5,346.5C 559.309,342.738 558.642,339.071 557.5,335.5C 558.468,333.393 558.802,331.059 558.5,328.5C 561.167,328.5 563.833,328.5 566.5,328.5C 566.466,324.37 565.799,320.37 564.5,316.5C 566.492,316.672 568.158,316.005 569.5,314.5C 570.012,316.851 571.012,318.851 572.5,320.5C 573.452,318.955 573.785,317.288 573.5,315.5 Z"/></g>
<g><path style="opacity:1" fill="#371b2d" d="M 257.5,310.5 C 262.862,314.556 266.196,319.89 267.5,326.5C 266.145,324.342 264.478,322.342 262.5,320.5C 261.664,316.688 259.997,313.355 257.5,310.5 Z"/></g>
<g><path style="opacity:1" fill="#281d40" d="M 117.5,316.5 C 117.5,317.167 117.5,317.833 117.5,318.5C 115.206,325.009 113.539,331.676 112.5,338.5C 110.926,340.102 110.259,342.102 110.5,344.5C 109.257,352.111 108.591,359.777 108.5,367.5C 104.963,396.344 112.463,422.011 131,444.5C 148.262,463.592 169.095,477.259 193.5,485.5C 194.382,487.384 195.882,488.717 198,489.5C 198.497,491.81 198.663,494.143 198.5,496.5C 201.167,496.5 203.833,496.5 206.5,496.5C 206.799,498.604 206.466,500.604 205.5,502.5C 202.702,503.953 199.702,504.953 196.5,505.5C 197.167,506.167 197.833,506.833 198.5,507.5C 197.398,508.176 196.398,508.842 195.5,509.5C 190.393,508.576 185.393,507.242 180.5,505.5C 111.848,479.633 80.3482,429.967 86,356.5C 87.7401,339.04 91.9068,322.206 98.5,306C 94.9196,303.723 91.5863,301.223 88.5,298.5C 88.56,297.957 88.8933,297.624 89.5,297.5C 91.6409,300.019 93.6409,300.019 95.5,297.5C 97.7427,296.526 100.076,296.192 102.5,296.5C 102.216,299.777 102.549,302.943 103.5,306C 101.759,307.62 99.9252,309.12 98,310.5C 97.9314,315.021 96.7647,319.188 94.5,323C 95.2335,324.766 95.5668,326.599 95.5,328.5C 97.8333,328.5 100.167,328.5 102.5,328.5C 102.5,325.833 102.5,323.167 102.5,320.5C 104.857,320.337 107.19,320.503 109.5,321C 110.264,323.069 110.764,325.236 111,327.5C 111.667,326.167 112.333,326.167 113,327.5C 114.369,323.659 115.869,319.992 117.5,316.5 Z"/></g>
<g><path style="opacity:1" fill="#d85d2f" d="M 526.5,314.5 C 533.982,315.492 541.648,315.825 549.5,315.5C 550.167,318.5 550.833,321.5 551.5,324.5C 551.66,326.199 551.494,327.866 551,329.5C 548.964,330.102 547.13,331.102 545.5,332.5C 544.288,330.159 544.622,327.993 546.5,326C 544.182,325.658 542.015,326.158 540,327.5C 539.667,327.167 539.333,326.833 539,326.5C 538.647,328.074 537.98,329.741 537,331.5C 536.147,329.875 535.147,329.542 534,330.5C 532.39,326.166 529.557,323.999 525.5,324C 524.167,323.333 524.167,322.667 525.5,322C 523.385,321.443 521.385,320.609 519.5,319.5C 518.914,319.709 518.414,320.043 518,320.5C 518,319.167 518,317.833 518,316.5C 515.683,315.18 513.683,313.514 512,311.5C 511.047,313.373 509.88,313.706 508.5,312.5C 508.97,311.307 509.97,310.64 511.5,310.5C 516.17,312.838 521.17,314.171 526.5,314.5 Z"/></g>
<g><path style="opacity:1" fill="#e7a068" d="M 292.5,320.5 C 289.167,329.175 284.834,337.175 279.5,344.5C 279.351,343.448 279.517,342.448 280,341.5C 284.765,335.297 287.932,328.297 289.5,320.5C 290.5,320.5 291.5,320.5 292.5,320.5 Z"/></g>
<g><path style="opacity:1" fill="#391d2d" d="M 553.5,324.5 C 554.117,324.611 554.617,324.944 555,325.5C 556.143,328.777 556.977,332.11 557.5,335.5C 558.642,339.071 559.309,342.738 559.5,346.5C 557.833,341.142 556.166,335.808 554.5,330.5C 554.5,329.833 554.5,329.167 554.5,328.5C 554.167,327.167 553.833,325.833 553.5,324.5 Z"/></g>
<g><path style="opacity:1" fill="#fdecd4" d="M 370.5,300.5 C 371.816,303.408 372.816,306.408 373.5,309.5C 376.198,320.887 380.531,331.554 386.5,341.5C 384.549,340.718 383.049,339.384 382,337.5C 378.963,329.995 375.63,322.661 372,315.5C 371.589,310.481 371.089,305.481 370.5,300.5 Z"/></g>
<g><path style="opacity:1" fill="#df6932" d="M 486.5,295.5 C 491.021,296.427 495.021,298.427 498.5,301.5C 499.754,304.75 501.754,307.417 504.5,309.5C 503.572,310.768 503.405,312.101 504,313.5C 505.543,310.581 507.043,310.248 508.5,312.5C 509.88,313.706 511.047,313.373 512,311.5C 513.683,313.514 515.683,315.18 518,316.5C 518,317.833 518,319.167 518,320.5C 518.414,320.043 518.914,319.709 519.5,319.5C 521.385,320.609 523.385,321.443 525.5,322C 524.167,322.667 524.167,323.333 525.5,324C 529.557,323.999 532.39,326.166 534,330.5C 535.147,329.542 536.147,329.875 537,331.5C 537.98,329.741 538.647,328.074 539,326.5C 539.333,326.833 539.667,327.167 540,327.5C 542.015,326.158 544.182,325.658 546.5,326C 544.622,327.993 544.288,330.159 545.5,332.5C 547.13,331.102 548.964,330.102 551,329.5C 551.494,327.866 551.66,326.199 551.5,324.5C 552.143,326.076 553.143,327.41 554.5,328.5C 554.5,329.167 554.5,329.833 554.5,330.5C 555.114,334.135 555.448,337.802 555.5,341.5C 539.429,340.901 524.429,336.734 510.5,329C 496.804,321.798 485.471,311.965 476.5,299.5C 477.833,299.5 479.167,299.5 480.5,299.5C 480.5,298.5 480.5,297.5 480.5,296.5C 481.93,296.421 483.264,296.754 484.5,297.5C 485.522,297.145 486.189,296.478 486.5,295.5 Z"/></g>
<g><path style="opacity:1" fill="#d8915a" d="M 197.5,314.5 C 189.041,327.733 188.374,341.399 195.5,355.5C 193.926,355.063 192.759,354.063 192,352.5C 188.857,342.777 188.691,332.943 191.5,323C 192.523,319.315 194.523,316.482 197.5,314.5 Z"/></g>
<g><path style="opacity:1" fill="#3e1d26" d="M 403.5,321.5 C 401.751,330.049 401.084,338.716 401.5,347.5C 400.512,342.36 400.179,337.026 400.5,331.5C 400.723,327.838 401.723,324.505 403.5,321.5 Z"/></g>
<g><path style="opacity:1" fill="#281a42" d="M 353.5,335.5 C 360.611,339.055 363.444,344.722 362,352.5C 360.884,355.756 359.051,358.422 356.5,360.5C 350.426,361.448 344.759,363.448 339.5,366.5C 335.221,365.726 330.887,365.226 326.5,365C 324.484,364.101 322.817,362.767 321.5,361C 320.552,360.517 319.552,360.351 318.5,360.5C 318.5,359.167 318.5,357.833 318.5,356.5C 316.167,356.5 313.833,356.5 311.5,356.5C 311.5,355.167 311.5,353.833 311.5,352.5C 310.5,352.5 309.5,352.5 308.5,352.5C 308.336,349.813 308.503,347.146 309,344.5C 309.333,344.833 309.667,345.167 310,345.5C 313.054,343.634 314.554,340.967 314.5,337.5C 315.833,337.5 317.167,337.5 318.5,337.5C 318.5,339.833 318.5,342.167 318.5,344.5C 321.167,344.5 323.833,344.5 326.5,344.5C 326.5,342.167 326.5,339.833 326.5,337.5C 335.528,336.932 344.528,336.266 353.5,335.5 Z"/></g>
<g><path style="opacity:1" fill="#db8f58" d="M 475.5,319.5 C 476.943,320.335 477.943,321.668 478.5,323.5C 478.833,327.833 479.167,332.167 479.5,336.5C 480.323,344.713 478.323,352.046 473.5,358.5C 475.291,359.17 476.958,359.837 478.5,360.5C 475.505,360.294 472.838,360.96 470.5,362.5C 469.833,362.5 469.167,362.5 468.5,362.5C 473.391,357.523 476.391,351.523 477.5,344.5C 478.653,338.681 478.819,332.681 478,326.5C 476.589,324.35 475.755,322.016 475.5,319.5 Z"/></g>
<g><path style="opacity:1" fill="#43222c" d="M 267.5,326.5 C 268.167,327.833 268.833,329.167 269.5,330.5C 269.943,338.73 268.776,346.73 266,354.5C 265.148,355.571 264.315,356.571 263.5,357.5C 267.004,347.506 268.337,337.173 267.5,326.5 Z"/></g>
<g><path style="opacity:1" fill="#4b2931" d="M 472.5,316.5 C 473.728,317.306 474.728,318.306 475.5,319.5C 475.755,322.016 476.589,324.35 478,326.5C 478.819,332.681 478.653,338.681 477.5,344.5C 477.828,339.125 477.495,333.792 476.5,328.5C 474.361,324.749 473.027,320.749 472.5,316.5 Z"/></g>
<g><path style="opacity:1" fill="#7c473e" d="M 112.5,338.5 C 112.741,340.898 112.074,342.898 110.5,344.5C 110.259,342.102 110.926,340.102 112.5,338.5 Z"/></g>
<g><path style="opacity:1" fill="#c07e55" d="M 554.5,330.5 C 556.166,335.808 557.833,341.142 559.5,346.5C 559.833,349.833 560.167,353.167 560.5,356.5C 560.167,356.5 559.833,356.5 559.5,356.5C 558.272,351.456 556.939,346.456 555.5,341.5C 555.448,337.802 555.114,334.135 554.5,330.5 Z"/></g>
<g><path style="opacity:1" fill="#d89361" d="M 269.5,330.5 C 270.647,334.646 270.814,338.98 270,343.5C 269.974,347.108 269.141,350.442 267.5,353.5C 267.957,354.298 268.624,354.631 269.5,354.5C 267.761,357.243 265.427,359.243 262.5,360.5C 263.11,359.609 263.443,358.609 263.5,357.5C 264.315,356.571 265.148,355.571 266,354.5C 268.776,346.73 269.943,338.73 269.5,330.5 Z"/></g>
<g><path style="opacity:1" fill="#af6d47" d="M 399.5,331.5 C 399.833,331.5 400.167,331.5 400.5,331.5C 400.179,337.026 400.512,342.36 401.5,347.5C 402.15,349.435 402.483,351.435 402.5,353.5C 401.207,352.158 400.374,350.491 400,348.5C 399.501,342.843 399.334,337.176 399.5,331.5 Z"/></g>
<g><path style="opacity:1" fill="#d4a171" d="M 402.5,353.5 C 403.82,355.463 405.154,357.463 406.5,359.5C 403.802,359.155 401.802,357.822 400.5,355.5C 401.833,355.5 402.5,354.833 402.5,353.5 Z"/></g>
<g><path style="opacity:1" fill="#dd8c50" d="M 112.5,338.5 C 113.338,338.842 113.672,339.508 113.5,340.5C 113.5,340.833 113.5,341.167 113.5,341.5C 111.911,350.389 110.911,359.389 110.5,368.5C 109.833,368.5 109.167,368.5 108.5,368.5C 108.5,368.167 108.5,367.833 108.5,367.5C 108.591,359.777 109.257,352.111 110.5,344.5C 112.074,342.898 112.741,340.898 112.5,338.5 Z"/></g>
<g><path style="opacity:1" fill="#f66152" d="M 200.5,362.5 C 202.167,363.5 203.5,364.833 204.5,366.5C 201.076,365.086 197.743,363.586 194.5,362C 183.123,361.144 171.79,361.478 160.5,363C 154.188,364.783 148.688,367.949 144,372.5C 143.588,374.997 142.422,376.997 140.5,378.5C 139.534,380.396 139.201,382.396 139.5,384.5C 138.833,384.5 138.167,384.5 137.5,384.5C 137.5,383.833 137.167,383.5 136.5,383.5C 138.69,377.625 142.024,372.458 146.5,368C 160.423,359.896 175.423,357.229 191.5,360C 194.811,360.057 197.811,360.89 200.5,362.5 Z"/></g>
<g><path style="opacity:1" fill="#f86654" d="M 478.5,360.5 C 488.839,360.334 499.172,360.5 509.5,361C 511.233,362.189 512.9,363.356 514.5,364.5C 499.907,360.948 485.24,360.614 470.5,363.5C 470.5,363.167 470.5,362.833 470.5,362.5C 472.838,360.96 475.505,360.294 478.5,360.5 Z"/></g>
<g><path style="opacity:1" fill="#fd525d" d="M 514.5,364.5 C 520.628,367.113 525.795,371.113 530,376.5C 531.559,378.217 532.392,380.217 532.5,382.5C 530.46,385.038 527.794,386.871 524.5,388C 517.042,390.698 509.709,393.698 502.5,397C 491.323,401.321 479.99,401.654 468.5,398C 456.143,394.535 444.143,390.201 432.5,385C 430.888,384.28 429.388,384.446 428,385.5C 427.583,384.244 426.75,383.577 425.5,383.5C 424.833,380.833 424.167,378.167 423.5,375.5C 425.5,375.5 427.5,375.5 429.5,375.5C 437.552,377.413 445.218,376.747 452.5,373.5C 453.167,373.5 453.833,373.5 454.5,373.5C 457.049,373.613 459.382,372.946 461.5,371.5C 464.494,368.84 467.494,366.173 470.5,363.5C 485.24,360.614 499.907,360.948 514.5,364.5 Z"/></g>
<g><path style="opacity:1" fill="#d89866" d="M 559.5,356.5 C 559.833,356.5 560.167,356.5 560.5,356.5C 561.344,360.099 561.677,363.766 561.5,367.5C 560.833,367.5 560.5,367.833 560.5,368.5C 557.167,370.167 553.833,371.833 550.5,373.5C 550.5,372.5 550.5,371.5 550.5,370.5C 553.837,370.323 556.837,369.323 559.5,367.5C 559.5,363.833 559.5,360.167 559.5,356.5 Z"/></g>
<g><path style="opacity:1" fill="#291f40" d="M 353.5,335.5 C 344.528,336.266 335.528,336.932 326.5,337.5C 326.5,339.833 326.5,342.167 326.5,344.5C 323.833,344.5 321.167,344.5 318.5,344.5C 318.5,342.167 318.5,339.833 318.5,337.5C 317.167,337.5 315.833,337.5 314.5,337.5C 314.554,340.967 313.054,343.634 310,345.5C 309.667,345.167 309.333,344.833 309,344.5C 308.503,347.146 308.336,349.813 308.5,352.5C 309.5,352.5 310.5,352.5 311.5,352.5C 311.5,353.833 311.5,355.167 311.5,356.5C 313.833,356.5 316.167,356.5 318.5,356.5C 318.5,357.833 318.5,359.167 318.5,360.5C 319.552,360.351 320.552,360.517 321.5,361C 322.817,362.767 324.484,364.101 326.5,365C 330.887,365.226 335.221,365.726 339.5,366.5C 344.759,363.448 350.426,361.448 356.5,360.5C 352.776,363.639 348.443,365.639 343.5,366.5C 343.334,370.514 343.501,374.514 344,378.5C 351.21,381.215 356.71,385.882 360.5,392.5C 359.325,392.719 358.325,392.386 357.5,391.5C 355.521,388.012 352.854,385.179 349.5,383C 347.35,381.589 345.016,380.755 342.5,380.5C 342.5,381.833 342.5,383.167 342.5,384.5C 339.833,384.5 337.167,384.5 334.5,384.5C 334.192,386.924 334.526,389.257 335.5,391.5C 338.443,392.613 341.277,393.946 344,395.5C 344.772,395.355 345.439,395.022 346,394.5C 346.455,397.854 346.955,401.187 347.5,404.5C 338.346,389.545 329.679,389.878 321.5,405.5C 320.105,402.663 320.438,399.996 322.5,397.5C 324.019,396.149 325.352,394.649 326.5,393C 327.793,392.51 329.127,392.343 330.5,392.5C 330.301,388.344 330.134,384.344 330,380.5C 328.647,381.685 327.48,383.019 326.5,384.5C 325.278,382.022 323.278,381.022 320.5,381.5C 321.78,380.069 323.447,379.402 325.5,379.5C 325.5,375.167 325.5,370.833 325.5,366.5C 309.33,363.858 303.83,354.858 309,339.5C 310.731,337.383 312.898,335.883 315.5,335C 328.34,334.173 341.007,334.34 353.5,335.5 Z"/></g>
<g><path style="opacity:1" fill="#cc5061" d="M 468.5,362.5 C 469.167,362.5 469.833,362.5 470.5,362.5C 470.5,362.833 470.5,363.167 470.5,363.5C 467.494,366.173 464.494,368.84 461.5,371.5C 459.382,372.946 457.049,373.613 454.5,373.5C 459.741,370.596 464.407,366.929 468.5,362.5 Z"/></g>
<g><path style="opacity:1" fill="#fe505a" d="M 204.5,366.5 C 204.833,366.5 205.167,366.5 205.5,366.5C 205.322,370.828 207.322,373.662 211.5,375C 214.7,375.101 217.7,375.768 220.5,377C 226.681,377.819 232.681,377.653 238.5,376.5C 240.102,374.926 242.102,374.259 244.5,374.5C 245.497,374.47 246.164,374.97 246.5,376C 244.7,378.688 243.367,381.521 242.5,384.5C 228.867,387.767 215.534,391.934 202.5,397C 189.02,400.382 175.687,400.048 162.5,396C 154.877,392.017 147.21,388.184 139.5,384.5C 139.201,382.396 139.534,380.396 140.5,378.5C 142.422,376.997 143.588,374.997 144,372.5C 148.688,367.949 154.188,364.783 160.5,363C 171.79,361.478 183.123,361.144 194.5,362C 197.743,363.586 201.076,365.086 204.5,366.5 Z"/></g>
<g><path style="opacity:1" fill="#e2565d" d="M 205.5,366.5 C 206.236,368.229 207.57,369.229 209.5,369.5C 213.224,372.695 217.557,374.862 222.5,376C 227.823,376.499 233.156,376.666 238.5,376.5C 232.681,377.653 226.681,377.819 220.5,377C 217.7,375.768 214.7,375.101 211.5,375C 207.322,373.662 205.322,370.828 205.5,366.5 Z"/></g>
<g><path style="opacity:1" fill="#2e2139" d="M 553.5,422.5 C 553.539,423.583 553.873,424.583 554.5,425.5C 551.327,428.503 549.161,432.17 548,436.5C 544.402,440.156 540.902,443.989 537.5,448C 536.906,448.464 536.239,448.631 535.5,448.5C 542.499,440.493 548.499,431.826 553.5,422.5 Z"/></g>
<g><path style="opacity:1" fill="#261c43" d="M 581.5,404.5 C 576.536,432.109 563.536,455.109 542.5,473.5C 537.203,472.725 531.87,472.392 526.5,472.5C 526.5,473.833 526.5,475.167 526.5,476.5C 522.445,476.824 518.445,476.491 514.5,475.5C 513.266,473.602 513.599,471.935 515.5,470.5C 516.167,470.833 516.833,471.167 517.5,471.5C 518.318,469.892 518.985,468.225 519.5,466.5C 521.655,465.59 523.655,464.423 525.5,463C 525.167,462.667 524.833,462.333 524.5,462C 526.141,460.871 527.141,459.371 527.5,457.5C 530.167,454.5 532.833,451.5 535.5,448.5C 536.239,448.631 536.906,448.464 537.5,448C 540.902,443.989 544.402,440.156 548,436.5C 549.161,432.17 551.327,428.503 554.5,425.5C 553.873,424.583 553.539,423.583 553.5,422.5C 553.5,422.167 553.5,421.833 553.5,421.5C 556.084,420.952 557.084,419.285 556.5,416.5C 558.5,416.5 560.5,416.5 562.5,416.5C 562.5,419.167 562.5,421.833 562.5,424.5C 563.833,424.5 565.167,424.5 566.5,424.5C 566.5,421.833 566.5,419.167 566.5,416.5C 567.833,416.5 569.167,416.5 570.5,416.5C 570.5,413.833 570.5,411.167 570.5,408.5C 569.167,408.5 567.833,408.5 566.5,408.5C 566.5,407.167 566.5,405.833 566.5,404.5C 569.167,404.5 571.833,404.5 574.5,404.5C 574.5,401.833 574.5,399.167 574.5,396.5C 575.833,396.5 577.167,396.5 578.5,396.5C 578.5,393.833 578.5,391.167 578.5,388.5C 579.5,388.5 580.5,388.5 581.5,388.5C 581.5,393.833 581.5,399.167 581.5,404.5 Z"/></g>
<g><path style="opacity:1" fill="#f9d9cb" d="M 108.5,367.5 C 108.5,367.833 108.5,368.167 108.5,368.5C 108.405,373.887 108.905,379.22 110,384.5C 114.925,397.016 120.925,409.016 128,420.5C 151.343,444.861 179.177,461.694 211.5,471C 254.804,478.847 298.47,482.013 342.5,480.5C 378.763,481.467 414.763,478.801 450.5,472.5C 478.535,466.521 503.535,454.688 525.5,437C 533.073,429.145 540.239,420.978 547,412.5C 552.24,402.846 556.573,392.846 560,382.5C 560.499,377.845 560.666,373.179 560.5,368.5C 560.5,367.833 560.833,367.5 561.5,367.5C 563.376,386.236 560.71,404.236 553.5,421.5C 553.5,421.833 553.5,422.167 553.5,422.5C 548.499,431.826 542.499,440.493 535.5,448.5C 532.833,451.5 530.167,454.5 527.5,457.5C 506.129,474.848 481.796,486.348 454.5,492C 445.253,493.93 435.92,495.097 426.5,495.5C 387.533,497.713 348.533,498.547 309.5,498C 308.584,497.626 307.75,497.126 307,496.5C 299.404,497.006 291.571,497.339 283.5,497.5C 269.52,496.322 255.52,495.655 241.5,495.5C 225.03,494.382 209.03,491.049 193.5,485.5C 169.095,477.259 148.262,463.592 131,444.5C 112.463,422.011 104.963,396.344 108.5,367.5 Z"/></g>
<g><path style="opacity:1" fill="#ea7072" d="M 466.5,418.5 C 478.482,419.309 490.482,419.642 502.5,419.5C 497.075,420.984 491.409,421.651 485.5,421.5C 478.805,421.923 472.472,420.923 466.5,418.5 Z"/></g>
<g><path style="opacity:1" fill="#f67276" d="M 136.5,383.5 C 137.167,383.5 137.5,383.833 137.5,384.5C 137.69,388.923 138.357,393.256 139.5,397.5C 141.942,397.119 142.609,397.786 141.5,399.5C 142.325,400.386 143.325,400.719 144.5,400.5C 144.808,404.009 146.808,405.676 150.5,405.5C 150.5,406.5 150.5,407.5 150.5,408.5C 154.784,407.923 157.784,409.59 159.5,413.5C 159.291,414.086 158.957,414.586 158.5,415C 169.419,419.088 180.752,420.921 192.5,420.5C 179.65,424.237 167.316,422.737 155.5,416C 142.592,408.943 136.259,398.11 136.5,383.5 Z"/></g>
<g><path style="opacity:1" fill="#f56b72" d="M 225.5,404.5 C 216.501,413 205.834,418.333 193.5,420.5C 199.469,418.614 205.136,415.948 210.5,412.5C 210.306,411.07 210.306,409.57 210.5,408C 211.803,407.79 213.136,407.957 214.5,408.5C 216.808,406.529 219.142,404.529 221.5,402.5C 222.622,403.63 223.956,404.297 225.5,404.5 Z"/></g>
<g><path style="opacity:1" fill="#251a44" d="M 360.5,392.5 C 365.973,402.068 368.139,412.401 367,423.5C 365.976,427.68 363.31,429.68 359,429.5C 354.265,429.435 351.265,427.102 350,422.5C 349.825,416.381 348.992,410.381 347.5,404.5C 346.955,401.187 346.455,397.854 346,394.5C 345.439,395.022 344.772,395.355 344,395.5C 341.277,393.946 338.443,392.613 335.5,391.5C 334.526,389.257 334.192,386.924 334.5,384.5C 337.167,384.5 339.833,384.5 342.5,384.5C 342.5,383.167 342.5,381.833 342.5,380.5C 345.016,380.755 347.35,381.589 349.5,383C 352.854,385.179 355.521,388.012 357.5,391.5C 358.325,392.386 359.325,392.719 360.5,392.5 Z"/></g>
<g><path style="opacity:1" fill="#241a40" d="M 321.5,405.5 C 320.971,410.822 320.471,416.156 320,421.5C 317.896,428.264 313.396,430.764 306.5,429C 302.874,425.46 301.207,421.126 301.5,416C 301.798,400.94 308.131,389.44 320.5,381.5C 323.278,381.022 325.278,382.022 326.5,384.5C 327.48,383.019 328.647,381.685 330,380.5C 330.134,384.344 330.301,388.344 330.5,392.5C 329.127,392.343 327.793,392.51 326.5,393C 325.352,394.649 324.019,396.149 322.5,397.5C 320.438,399.996 320.105,402.663 321.5,405.5 Z"/></g>
<g><path style="opacity:1" fill="#fe6a69" d="M 248.5,372.5 C 247.854,376.797 246.354,380.797 244,384.5C 240.947,387.887 238.28,391.553 236,395.5C 232.902,399.107 229.402,402.107 225.5,404.5C 223.956,404.297 222.622,403.63 221.5,402.5C 219.142,404.529 216.808,406.529 214.5,408.5C 213.136,407.957 211.803,407.79 210.5,408C 210.306,409.57 210.306,411.07 210.5,412.5C 205.136,415.948 199.469,418.614 193.5,420.5C 193.167,420.5 192.833,420.5 192.5,420.5C 180.752,420.921 169.419,419.088 158.5,415C 158.957,414.586 159.291,414.086 159.5,413.5C 157.784,409.59 154.784,407.923 150.5,408.5C 150.5,407.5 150.5,406.5 150.5,405.5C 146.808,405.676 144.808,404.009 144.5,400.5C 143.325,400.719 142.325,400.386 141.5,399.5C 142.609,397.786 141.942,397.119 139.5,397.5C 138.357,393.256 137.69,388.923 137.5,384.5C 138.167,384.5 138.833,384.5 139.5,384.5C 147.21,388.184 154.877,392.017 162.5,396C 175.687,400.048 189.02,400.382 202.5,397C 215.534,391.934 228.867,387.767 242.5,384.5C 243.367,381.521 244.7,378.688 246.5,376C 246.164,374.97 245.497,374.47 244.5,374.5C 245.514,373.326 246.847,372.66 248.5,372.5 Z"/></g>
<g><path style="opacity:1" fill="#fd6d6a" d="M 532.5,382.5 C 532.5,384.833 532.5,387.167 532.5,389.5C 532.136,395.904 529.803,401.571 525.5,406.5C 519.156,413.172 511.489,417.506 502.5,419.5C 490.482,419.642 478.482,419.309 466.5,418.5C 461.099,416.301 455.765,413.801 450.5,411C 439.831,403.837 431.498,394.67 425.5,383.5C 426.75,383.577 427.583,384.244 428,385.5C 429.388,384.446 430.888,384.28 432.5,385C 444.143,390.201 456.143,394.535 468.5,398C 479.99,401.654 491.323,401.321 502.5,397C 509.709,393.698 517.042,390.698 524.5,388C 527.794,386.871 530.46,385.038 532.5,382.5 Z"/></g>
<g><path style="opacity:1" fill="#f0b095" d="M 538.5,380.5 C 537.378,381.947 535.878,382.947 534,383.5C 533.809,385.708 533.309,387.708 532.5,389.5C 532.5,387.167 532.5,384.833 532.5,382.5C 534.421,381.637 536.421,380.971 538.5,380.5 Z"/></g>
<g><path style="opacity:1" fill="#531a35" d="M 423.5,372.5 C 433.073,374.785 442.739,375.118 452.5,373.5C 445.218,376.747 437.552,377.413 429.5,375.5C 427.5,374.5 425.5,373.5 423.5,372.5 Z"/></g>
<g><path style="opacity:1" fill="#e4666a" d="M 420.5,372.5 C 421.5,372.5 422.5,372.5 423.5,372.5C 425.5,373.5 427.5,374.5 429.5,375.5C 427.5,375.5 425.5,375.5 423.5,375.5C 424.167,378.167 424.833,380.833 425.5,383.5C 423.089,380.23 421.423,376.563 420.5,372.5 Z"/></g>
<g><path style="opacity:1" fill="#481a32" d="M 209.5,369.5 C 212.715,370.107 215.715,371.274 218.5,373C 228.643,374.028 238.643,373.528 248.5,371.5C 248.5,371.833 248.5,372.167 248.5,372.5C 246.847,372.66 245.514,373.326 244.5,374.5C 242.102,374.259 240.102,374.926 238.5,376.5C 233.156,376.666 227.823,376.499 222.5,376C 217.557,374.862 213.224,372.695 209.5,369.5 Z"/></g>
<g><path style="opacity:1" fill="#271c40" d="M 527.5,457.5 C 527.141,459.371 526.141,460.871 524.5,462C 524.833,462.333 525.167,462.667 525.5,463C 523.655,464.423 521.655,465.59 519.5,466.5C 518.985,468.225 518.318,469.892 517.5,471.5C 516.833,471.167 516.167,470.833 515.5,470.5C 513.599,471.935 513.266,473.602 514.5,475.5C 518.445,476.491 522.445,476.824 526.5,476.5C 526.5,475.167 526.5,473.833 526.5,472.5C 531.87,472.392 537.203,472.725 542.5,473.5C 528.308,486.773 511.975,496.773 493.5,503.5C 477.655,509.671 461.321,514.004 444.5,516.5C 440.842,517.128 438.342,515.794 437,512.5C 436.07,514.552 434.57,516.052 432.5,517C 426.058,517.083 419.725,517.749 413.5,519C 373.871,520.761 334.205,521.928 294.5,522.5C 281.15,522.143 267.816,521.477 254.5,520.5C 253.192,519.768 251.858,518.934 250.5,518C 238.402,517.049 226.402,515.549 214.5,513.5C 214.5,507.833 214.5,502.167 214.5,496.5C 217.443,496.353 220.276,495.687 223,494.5C 229.419,495.973 235.919,496.973 242.5,497.5C 244.78,497.733 246.78,498.566 248.5,500C 247.062,500.219 245.729,500.719 244.5,501.5C 246.026,503.387 248.026,504.387 250.5,504.5C 253.994,503.498 257.327,502.164 260.5,500.5C 297.661,501.545 334.995,501.711 372.5,501C 381.384,500.864 390.051,500.031 398.5,498.5C 408.038,498.088 417.372,497.088 426.5,495.5C 435.92,495.097 445.253,493.93 454.5,492C 481.796,486.348 506.129,474.848 527.5,457.5 Z"/></g>
<g><path style="opacity:1" fill="#2d1f3c" d="M 193.5,485.5 C 209.03,491.049 225.03,494.382 241.5,495.5C 262.271,498.025 283.271,499.525 304.5,500C 335.862,500.883 367.196,500.383 398.5,498.5C 390.051,500.031 381.384,500.864 372.5,501C 334.995,501.711 297.661,501.545 260.5,500.5C 257.327,502.164 253.994,503.498 250.5,504.5C 248.026,504.387 246.026,503.387 244.5,501.5C 245.729,500.719 247.062,500.219 248.5,500C 246.78,498.566 244.78,497.733 242.5,497.5C 235.919,496.973 229.419,495.973 223,494.5C 220.276,495.687 217.443,496.353 214.5,496.5C 214.5,502.167 214.5,507.833 214.5,513.5C 226.402,515.549 238.402,517.049 250.5,518C 251.858,518.934 253.192,519.768 254.5,520.5C 234.298,519.08 214.631,515.413 195.5,509.5C 196.398,508.842 197.398,508.176 198.5,507.5C 197.833,506.833 197.167,506.167 196.5,505.5C 199.702,504.953 202.702,503.953 205.5,502.5C 206.466,500.604 206.799,498.604 206.5,496.5C 203.833,496.5 201.167,496.5 198.5,496.5C 198.663,494.143 198.497,491.81 198,489.5C 195.882,488.717 194.382,487.384 193.5,485.5 Z"/></g>
<g><path style="opacity:1" fill="#e5c8c6" d="M 241.5,495.5 C 255.52,495.655 269.52,496.322 283.5,497.5C 291.571,497.339 299.404,497.006 307,496.5C 307.75,497.126 308.584,497.626 309.5,498C 348.533,498.547 387.533,497.713 426.5,495.5C 417.372,497.088 408.038,498.088 398.5,498.5C 367.196,500.383 335.862,500.883 304.5,500C 283.271,499.525 262.271,498.025 241.5,495.5 Z"/></g>
<g><path style="opacity:1" fill="#f8dbd4" d="M 493.5,503.5 C 494.514,504.765 496.014,505.431 498,505.5C 515.469,507.636 532.969,509.47 550.5,511C 555.354,511.937 560.02,513.437 564.5,515.5C 566.05,518.129 565.384,519.963 562.5,521C 552.603,523.488 542.603,525.488 532.5,527C 430.571,538.928 328.571,541.428 226.5,534.5C 285.164,536.103 343.831,536.437 402.5,535.5C 402.244,533.208 402.577,531.041 403.5,529C 412.633,528.455 412.633,527.455 403.5,526C 403.07,525.08 402.736,524.247 402.5,523.5C 399.801,524.564 397.134,525.564 394.5,526.5C 392.933,526.523 391.6,526.023 390.5,525C 398.459,524.176 398.459,523.676 390.5,523.5C 380.433,523.971 370.433,524.971 360.5,526.5C 350.181,525.462 339.847,525.295 329.5,526C 327.436,526.653 325.769,527.82 324.5,529.5C 321.17,528.906 317.836,528.24 314.5,527.5C 316.766,526.686 319.1,526.186 321.5,526C 313.876,524.904 306.209,524.238 298.5,524C 297.263,523.768 296.263,523.268 295.5,522.5C 339.893,523.314 384.227,522.147 428.5,519C 433.988,518.226 439.321,517.393 444.5,516.5C 461.321,514.004 477.655,509.671 493.5,503.5 Z"/></g>
<g><path style="opacity:1" fill="#fcded4" d="M 180.5,505.5 C 185.393,507.242 190.393,508.576 195.5,509.5C 214.631,515.413 234.298,519.08 254.5,520.5C 267.816,521.477 281.15,522.143 294.5,522.5C 294.833,522.5 295.167,522.5 295.5,522.5C 296.263,523.268 297.263,523.768 298.5,524C 306.209,524.238 313.876,524.904 321.5,526C 319.1,526.186 316.766,526.686 314.5,527.5C 317.836,528.24 321.17,528.906 324.5,529.5C 325.769,527.82 327.436,526.653 329.5,526C 339.847,525.295 350.181,525.462 360.5,526.5C 370.433,524.971 380.433,523.971 390.5,523.5C 398.459,523.676 398.459,524.176 390.5,525C 391.6,526.023 392.933,526.523 394.5,526.5C 397.134,525.564 399.801,524.564 402.5,523.5C 402.736,524.247 403.07,525.08 403.5,526C 412.633,527.455 412.633,528.455 403.5,529C 402.577,531.041 402.244,533.208 402.5,535.5C 343.831,536.437 285.164,536.103 226.5,534.5C 189.622,533.071 152.955,529.571 116.5,524C 112.319,523.051 108.319,521.718 104.5,520C 103.317,517.845 103.65,515.845 105.5,514C 130.356,509.315 155.356,506.482 180.5,505.5 Z"/></g>
<g><path style="opacity:1" fill="#271b36" d="M 444.5,516.5 C 439.321,517.393 433.988,518.226 428.5,519C 384.227,522.147 339.893,523.314 295.5,522.5C 295.167,522.5 294.833,522.5 294.5,522.5C 334.205,521.928 373.871,520.761 413.5,519C 419.725,517.749 426.058,517.083 432.5,517C 434.57,516.052 436.07,514.552 437,512.5C 438.342,515.794 440.842,517.128 444.5,516.5 Z"/></g>
</svg>
